<svg width="32" height="32" viewBox="0 0 32 32" fill="none" xmlns="http://www.w3.org/2000/svg">
<rect width="32" height="32" rx="8" fill="#0A3899"/>
<path fill-rule="evenodd" clip-rule="evenodd" d="M8.21967 16.5303C7.92678 16.2374 7.92678 15.7626 8.21967 15.4697L15.2197 8.46967C15.3603 8.32901 15.5511 8.25 15.75 8.25C15.9489 8.25 16.1397 8.32901 16.2803 8.46967L23.2803 15.4697C23.5732 15.7626 23.5732 16.2374 23.2803 16.5303C22.9874 16.8232 22.5126 16.8232 22.2197 16.5303L16.5 10.8107L16.5 23C16.5 23.4142 16.1642 23.75 15.75 23.75C15.3358 23.75 15 23.4142 15 23L15 10.8107L9.28033 16.5303C8.98744 16.8232 8.51257 16.8232 8.21967 16.5303Z" fill="white"/>
</svg>
