<svg width="28" height="28" viewBox="0 0 28 28" fill="none" xmlns="http://www.w3.org/2000/svg">
<path d="M15.105 8.52606L8.6557 14.9742C8.08513 15.545 7.76465 16.319 7.76476 17.126C7.76487 17.933 8.08556 18.7069 8.65628 19.2775C9.227 19.8481 10.001 20.1685 10.808 20.1684C11.615 20.1683 12.389 19.8476 12.9595 19.2769L19.9385 12.2979C20.4345 11.8046 20.8281 11.2182 21.0966 10.5723C21.3652 9.92635 21.5034 9.23374 21.5034 8.53423C21.5034 7.83472 21.3652 7.14211 21.0966 6.49621C20.8281 5.85031 20.4345 5.26386 19.9385 4.77056C18.9348 3.7974 17.5876 3.25951 16.1896 3.27371C14.7916 3.28791 13.4557 3.85305 12.4719 4.8464L5.4322 11.7507C4.05454 13.1861 3.29439 15.1043 3.31486 17.0938C3.33532 19.0832 4.13477 20.9853 5.54166 22.3921C6.94856 23.7988 8.8508 24.5981 10.8402 24.6183C12.8297 24.6386 14.7478 23.8782 16.183 22.5004L24.7895 13.9697" stroke="#767679" stroke-width="1.5" stroke-linecap="round" stroke-linejoin="round"/>
</svg>
