<svg width="20" height="20" viewBox="0 0 20 20" fill="none" xmlns="http://www.w3.org/2000/svg">
<path d="M0.375073 6.66518C0.375073 3.63054 2.73998 1.125 5.71218 1.125C7.47485 1.125 9.02726 2.00977 9.99591 3.36028C10.9646 2.00977 12.517 1.125 14.2796 1.125C17.2518 1.125 19.6167 3.63054 19.6167 6.66518C19.6167 7.57719 19.3851 8.41539 19.0467 9.15841C18.1908 11.0378 16.6847 12.9564 15.0811 14.6341C13.4718 16.3178 11.73 17.7946 10.3635 18.7883C10.1444 18.9477 9.84746 18.9477 9.6283 18.7883C8.27744 17.8059 6.49252 16.4093 4.85591 14.759C3.22617 13.1156 1.70414 11.1819 0.928834 9.11926C0.66549 8.41864 0.375073 7.594 0.375073 6.66518Z" fill="#2050B7"/>
</svg>
