<svg width="20" height="20" viewBox="0 0 20 20" fill="none" xmlns="http://www.w3.org/2000/svg">
<path fill-rule="evenodd" clip-rule="evenodd" d="M5.71218 2.375C3.47952 2.375 1.62507 4.27067 1.62507 6.66518C1.62507 7.34538 1.83647 7.98125 2.09891 8.67946C2.78418 10.5026 4.16595 12.2881 5.74346 13.8788C7.17179 15.3191 8.72842 16.5678 9.99418 17.5062C11.2417 16.5648 12.763 15.2504 14.1775 13.7704C15.7394 12.1363 17.137 10.3356 17.9092 8.64031C18.1901 8.02337 18.3667 7.36218 18.3667 6.66518C18.3667 4.27067 16.5123 2.375 14.2796 2.375C12.6468 2.375 11.2214 3.38353 10.5678 4.8667C10.468 5.09338 10.2436 5.23967 9.99591 5.23967C9.7482 5.23967 9.52386 5.09338 9.42397 4.8667C8.7704 3.38353 7.345 2.375 5.71218 2.375ZM0.375073 6.66518C0.375073 3.63054 2.73998 1.125 5.71218 1.125C7.47485 1.125 9.02726 2.00977 9.99591 3.36028C10.9646 2.00977 12.517 1.125 14.2796 1.125C17.2518 1.125 19.6167 3.63054 19.6167 6.66518C19.6167 7.57719 19.3851 8.41539 19.0467 9.15841C18.1908 11.0378 16.6847 12.9564 15.0811 14.6341C13.4718 16.3178 11.73 17.7946 10.3635 18.7883C10.1444 18.9477 9.84746 18.9477 9.6283 18.7883C8.27744 17.8059 6.49252 16.4093 4.85591 14.759C3.22617 13.1156 1.70414 11.1819 0.928834 9.11926C0.66549 8.41864 0.375073 7.594 0.375073 6.66518Z" fill="#BABABE"/>
</svg>
