<svg width="24" height="24" viewBox="0 0 24 24" fill="none" xmlns="http://www.w3.org/2000/svg">
<path fill-rule="evenodd" clip-rule="evenodd" d="M20.137 3.863C20.0114 3.73737 19.8604 3.66855 19.76 3.63057C19.3286 3.46747 18.8358 3.47585 18.3886 3.55414C17.6279 3.68727 16.7088 4.09767 15.7919 5.01462L9.52735 6.0932L6.82931 5.35302L6.77147 5.33706C6.54075 5.27319 6.2944 5.20499 6.04235 5.21582C5.81354 5.22565 5.58957 5.28495 5.38587 5.38963C5.16148 5.50495 4.98116 5.68611 4.81228 5.85578L4.76991 5.89827C4.75682 5.91137 4.74369 5.92444 4.73056 5.93752C4.64191 6.02581 4.55308 6.11428 4.47255 6.21005C4.38839 6.31012 4.28113 6.45708 4.22824 6.65683C4.15674 6.92683 4.18758 7.21373 4.31481 7.46238C4.40894 7.64633 4.54498 7.76715 4.64848 7.84705C4.74276 7.91983 4.86012 7.99523 4.97198 8.06709L9.9121 11.2425L7.82775 13.5406C7.28455 13.5046 6.74137 13.4683 6.1982 13.432C5.92836 13.414 5.65853 13.396 5.3887 13.378C5.381 13.3775 5.37265 13.3769 5.36373 13.3762C5.27545 13.3699 5.13 13.3595 4.98441 13.3867C4.8545 13.411 4.72984 13.4578 4.61609 13.5251C4.4886 13.6005 4.386 13.7041 4.32373 13.767L4.30611 13.7848L3.90625 14.1846C3.84974 14.2411 3.7792 14.3115 3.72359 14.3781C3.66469 14.4487 3.55433 14.592 3.5155 14.7992C3.46843 15.0504 3.52966 15.3098 3.68409 15.5134C3.8115 15.6814 3.97429 15.7602 4.05852 15.7969C4.13805 15.8316 4.23264 15.8631 4.30844 15.8883C4.93888 16.098 5.56914 16.3083 6.19941 16.5185C6.51344 16.6233 6.82747 16.728 7.14153 16.8327L7.16086 16.8391C7.37154 17.4703 7.58187 18.1016 7.7922 18.7329C7.89691 19.0471 8.00161 19.3614 8.10635 19.6756C8.18699 19.9174 8.27511 20.1555 8.48663 20.3159C8.69024 20.4703 8.94962 20.5316 9.20079 20.4845C9.40803 20.4457 9.55131 20.3353 9.62186 20.2764C9.77243 20.1507 9.9104 20.0077 10.0476 19.8656C10.1033 19.8078 10.159 19.7502 10.2152 19.6939C10.2207 19.6884 10.2266 19.6826 10.233 19.6763C10.2959 19.614 10.3995 19.5114 10.4749 19.3839C10.6118 19.1525 10.6427 18.9002 10.6238 18.6363C10.5847 18.0913 10.5492 17.5461 10.5138 17.001C10.4962 16.7313 10.4787 16.4616 10.4607 16.1919L10.4594 16.1723C10.9691 15.7096 11.4791 15.2472 11.989 14.7848C12.2435 14.5541 12.4979 14.3233 12.7524 14.0926L15.7258 18.8064C15.7972 18.9198 15.8722 19.0386 15.9446 19.134C16.0239 19.2386 16.1444 19.3766 16.3289 19.4724C16.578 19.6018 16.8662 19.634 17.1377 19.5628C17.3388 19.5101 17.4867 19.4022 17.5873 19.3177C17.6829 19.2372 17.7846 19.1353 17.8847 19.0349C17.9064 19.0131 17.928 18.9915 17.9494 18.9702C18.1158 18.8045 18.2935 18.6276 18.408 18.4077C18.5119 18.2081 18.5722 17.9886 18.5847 17.7639C18.5985 17.5164 18.536 17.2736 18.4774 17.0462L18.4628 16.9892C18.2765 16.2588 18.0901 15.5283 17.9037 14.7978C17.5304 13.3349 17.157 11.872 16.7846 10.4089C17.2745 9.91854 17.7647 9.42848 18.2549 8.93843C18.4984 8.69501 18.7419 8.4516 18.9854 8.20814C19.9023 7.29119 20.3127 6.3721 20.4459 5.61145C20.5117 5.23525 20.5095 4.89864 20.467 4.62359C20.425 4.35106 20.3368 4.06276 20.137 3.863ZM6.14303 6.57946L6.00726 6.59782C5.89741 6.6669 5.80817 6.78139 5.71725 6.87231C5.68095 6.90861 5.68085 6.90766 5.72403 6.93542L11.2149 10.4648L13.0326 8.46362L6.46987 6.66323C6.31697 6.62129 6.14303 6.57946 6.14303 6.57946ZM15.7919 5.01462L13.5969 7.20961L9.52735 6.0932L15.7919 5.01462ZM14.1767 8.55114L16.7525 5.97531C17.4851 5.24277 18.1812 4.96986 18.6489 4.888C18.8503 4.85518 19.0139 4.85681 19.1296 4.87035C19.1438 4.9911 19.1449 5.1638 19.1076 5.37722C19.0257 5.84488 18.7572 6.51492 18.0247 7.24746L15.8403 9.43181C15.8336 9.43859 15.8262 9.44591 15.8182 9.45374C15.7405 9.53048 15.6125 9.65693 15.5291 9.81708C15.4549 9.95968 15.4119 10.1165 15.4029 10.277C15.3929 10.4573 15.4384 10.6313 15.4661 10.737C15.849 12.201 16.22 13.6682 16.591 15.1354C16.7757 15.8654 16.9603 16.5954 17.1463 17.325C17.1847 17.4756 17.2063 17.5611 17.219 17.6265C17.2268 17.6668 17.228 17.6841 17.2282 17.6887C17.2263 17.7206 17.2178 17.7516 17.2031 17.78C17.2007 17.7838 17.1908 17.7981 17.1635 17.8288C17.1192 17.8785 17.057 17.9411 16.9471 18.051L16.927 18.071C16.9087 18.0893 16.8998 18.0985 16.892 18.0977C16.8842 18.0968 16.8776 18.0859 16.8638 18.0639L13.4698 12.6835C13.3628 12.5137 13.1861 12.4 12.9872 12.3728C12.7883 12.3457 12.5876 12.4079 12.4389 12.5427L9.56127 15.1527C9.55519 15.1582 9.54856 15.1641 9.54146 15.1705C9.47157 15.2332 9.3564 15.3366 9.27205 15.4686C9.19681 15.5864 9.14404 15.7171 9.11639 15.8541C9.08539 16.0077 9.0965 16.1621 9.10324 16.2557C9.14252 16.8011 9.17796 17.3469 9.2134 17.8926C9.23091 18.1623 9.24843 18.432 9.2664 18.7017L9.26763 18.7201L9.23188 18.7559L8.4562 16.4288C8.45353 16.4208 8.45068 16.4121 8.44763 16.4028C8.4175 16.3107 8.36783 16.1589 8.2773 16.0252C8.1966 15.9061 8.09392 15.8034 7.97476 15.7227C7.84111 15.6322 7.68936 15.5825 7.59727 15.5524C7.07141 15.3803 6.54673 15.2044 6.02208 15.0284C5.7628 14.9415 5.50353 14.8546 5.24412 14.7681L5.27987 14.7324C5.82268 14.7684 6.36547 14.8046 6.90826 14.8409C7.17808 14.8589 7.44789 14.8769 7.71771 14.8949C7.72589 14.8954 7.73474 14.8961 7.74422 14.8968C7.83789 14.9035 7.99226 14.9146 8.1459 14.8836C8.2829 14.856 8.4136 14.8032 8.53139 14.728C8.66346 14.6436 8.76682 14.5284 8.82954 14.4585C9.53044 13.6774 10.2369 12.9013 10.9433 12.1251C11.2945 11.7392 11.6457 11.3534 11.9962 10.967L11.9875 10.9614L14.1767 8.55114Z" fill="#767679"/>
</svg>
