<svg width="24" height="24" viewBox="0 0 24 24" fill="none" xmlns="http://www.w3.org/2000/svg">
<path d="M5.25 7.875C5.25 7.17881 5.52656 6.51113 6.01884 6.01884C6.51113 5.52656 7.17881 5.25 7.875 5.25C8.57119 5.25 9.23887 5.52656 9.73116 6.01884C10.2234 6.51113 10.5 7.17881 10.5 7.875C10.5 8.57119 10.2234 9.23887 9.73116 9.73116C9.23887 10.2234 8.57119 10.5 7.875 10.5C7.17881 10.5 6.51113 10.2234 6.01884 9.73116C5.52656 9.23887 5.25 8.57119 5.25 7.875ZM7.875 3.75C6.78098 3.75 5.73177 4.1846 4.95818 4.95818C4.1846 5.73177 3.75 6.78098 3.75 7.875C3.75 8.96902 4.1846 10.0182 4.95818 10.7918C5.73177 11.5654 6.78098 12 7.875 12C8.96902 12 10.0182 11.5654 10.7918 10.7918C11.5654 10.0182 12 8.96902 12 7.875C12 6.78098 11.5654 5.73177 10.7918 4.95818C10.0182 4.1846 8.96902 3.75 7.875 3.75ZM15.75 9C15.75 8.60218 15.908 8.22064 16.1893 7.93934C16.4706 7.65804 16.8522 7.5 17.25 7.5C17.6478 7.5 18.0294 7.65804 18.3107 7.93934C18.592 8.22064 18.75 8.60218 18.75 9C18.75 9.39782 18.592 9.77936 18.3107 10.0607C18.0294 10.342 17.6478 10.5 17.25 10.5C16.8522 10.5 16.4706 10.342 16.1893 10.0607C15.908 9.77936 15.75 9.39782 15.75 9ZM17.25 6C16.4544 6 15.6913 6.31607 15.1287 6.87868C14.5661 7.44129 14.25 8.20435 14.25 9C14.25 9.79565 14.5661 10.5587 15.1287 11.1213C15.6913 11.6839 16.4544 12 17.25 12C18.0456 12 18.8087 11.6839 19.3713 11.1213C19.9339 10.5587 20.25 9.79565 20.25 9C20.25 8.20435 19.9339 7.44129 19.3713 6.87868C18.8087 6.31607 18.0456 6 17.25 6ZM1.5 15.75C1.5 15.1533 1.73705 14.581 2.15901 14.159C2.58097 13.7371 3.15326 13.5 3.75 13.5H12.0233C11.5506 13.9164 11.1707 14.4275 10.908 15H3.75C3.55109 15 3.36032 15.079 3.21967 15.2197C3.07902 15.3603 3 15.5511 3 15.75V15.8925C3 15.9055 3.00225 15.929 3.00675 15.963C3.01425 16.0305 3.03 16.1355 3.06375 16.266C3.13125 16.527 3.2685 16.8795 3.5445 17.2343C4.07325 17.9123 5.235 18.75 7.875 18.75C9.129 18.75 10.05 18.561 10.7273 18.2902C10.8866 18.7701 11.1257 19.2196 11.4345 19.62C10.5367 20.0063 9.37425 20.25 7.875 20.25C4.89 20.25 3.24 19.2825 2.36175 18.156C2.01192 17.7077 1.75677 17.1931 1.61175 16.6432C1.55486 16.4225 1.51821 16.1971 1.50225 15.9697L1.50075 15.9195V15.9022L1.5 15.8962V15.75ZM16.125 14.25C16.125 14.0511 16.046 13.8603 15.9053 13.7197C15.7647 13.579 15.5739 13.5 15.375 13.5H15C14.1049 13.5 13.2465 13.8556 12.6135 14.4885C11.9806 15.1215 11.625 15.9799 11.625 16.875C11.625 17.7701 11.9806 18.6285 12.6135 19.2615C13.2465 19.8944 14.1049 20.25 15 20.25H15.375C15.5739 20.25 15.7647 20.171 15.9053 20.0303C16.046 19.8897 16.125 19.6989 16.125 19.5C16.125 19.3011 16.046 19.1103 15.9053 18.9697C15.7647 18.829 15.5739 18.75 15.375 18.75H15C14.5027 18.75 14.0258 18.5525 13.6742 18.2008C13.3225 17.8492 13.125 17.3723 13.125 16.875C13.125 16.3777 13.3225 15.9008 13.6742 15.5492C14.0258 15.1975 14.5027 15 15 15H15.375C15.5739 15 15.7647 14.921 15.9053 14.7803C16.046 14.6397 16.125 14.4489 16.125 14.25ZM19.125 13.5C18.9261 13.5 18.7353 13.579 18.5947 13.7197C18.454 13.8603 18.375 14.0511 18.375 14.25C18.375 14.4489 18.454 14.6397 18.5947 14.7803C18.7353 14.921 18.9261 15 19.125 15H19.5C19.9973 15 20.4742 15.1975 20.8258 15.5492C21.1775 15.9008 21.375 16.3777 21.375 16.875C21.375 17.3723 21.1775 17.8492 20.8258 18.2008C20.4742 18.5525 19.9973 18.75 19.5 18.75H19.125C18.9261 18.75 18.7353 18.829 18.5947 18.9697C18.454 19.1103 18.375 19.3011 18.375 19.5C18.375 19.6989 18.454 19.8897 18.5947 20.0303C18.7353 20.171 18.9261 20.25 19.125 20.25H19.5C20.3951 20.25 21.2535 19.8944 21.8865 19.2615C22.5194 18.6285 22.875 17.7701 22.875 16.875C22.875 15.9799 22.5194 15.1215 21.8865 14.4885C21.2535 13.8556 20.3951 13.5 19.5 13.5H19.125ZM15.375 16.125C15.1761 16.125 14.9853 16.204 14.8447 16.3447C14.704 16.4853 14.625 16.6761 14.625 16.875C14.625 17.0739 14.704 17.2647 14.8447 17.4053C14.9853 17.546 15.1761 17.625 15.375 17.625H19.125C19.3239 17.625 19.5147 17.546 19.6553 17.4053C19.796 17.2647 19.875 17.0739 19.875 16.875C19.875 16.6761 19.796 16.4853 19.6553 16.3447C19.5147 16.204 19.3239 16.125 19.125 16.125H15.375Z" fill="#767679"/>
</svg>
