<svg width="24" height="24" viewBox="0 0 24 24" fill="none" xmlns="http://www.w3.org/2000/svg">
<path d="M7.50602 15.265C7.53229 15.36 7.577 15.4488 7.6376 15.5265C7.6982 15.6042 7.7735 15.6691 7.85921 15.7177C7.94492 15.7663 8.03935 15.7975 8.13712 15.8095C8.23489 15.8216 8.33408 15.8143 8.42902 15.788C8.52397 15.7618 8.61281 15.7171 8.69048 15.6565C8.76815 15.5959 8.83312 15.5206 8.88168 15.4348C8.93025 15.3491 8.96146 15.2547 8.97353 15.1569C8.98559 15.0592 8.97829 14.96 8.95202 14.865L7.50602 15.265ZM3.20002 4.72503C3.10471 4.69719 3.00481 4.68855 2.90612 4.69962C2.80744 4.71069 2.71194 4.74125 2.62516 4.78953C2.53838 4.8378 2.46205 4.90282 2.4006 4.98083C2.33915 5.05883 2.2938 5.14826 2.26719 5.24393C2.24057 5.3396 2.23322 5.4396 2.24556 5.53813C2.2579 5.63667 2.28968 5.73177 2.33906 5.81792C2.38844 5.90407 2.45444 5.97956 2.53323 6.04C2.61202 6.10045 2.70202 6.14464 2.79802 6.17003L3.20002 4.72503ZM20.188 15.725C20.2857 15.7024 20.3778 15.6605 20.459 15.6017C20.5402 15.5429 20.6087 15.4685 20.6607 15.3827C20.7126 15.297 20.7468 15.2017 20.7612 15.1025C20.7757 15.0033 20.7701 14.9022 20.7448 14.8052C20.7196 14.7082 20.6751 14.6173 20.6141 14.5378C20.5531 14.4582 20.4767 14.3918 20.3896 14.3422C20.3025 14.2927 20.2063 14.2612 20.1067 14.2494C20.0072 14.2377 19.9063 14.2461 19.81 14.274L20.188 15.725ZM10.197 17.559C10.507 18.679 9.82702 19.862 8.62302 20.175L9.00002 21.626C10.977 21.113 12.185 19.124 11.643 17.159L10.197 17.559ZM8.62302 20.175C7.41102 20.49 6.19502 19.786 5.88302 18.656L4.43702 19.056C4.97702 21.011 7.03102 22.138 9.00002 21.626L8.62302 20.175ZM5.88302 18.656C5.57302 17.536 6.25302 16.353 7.45702 16.04L7.08002 14.59C5.10302 15.103 3.89402 17.091 4.43702 19.056L5.88302 18.656ZM7.45702 16.04C8.66902 15.725 9.88502 16.429 10.197 17.559L11.643 17.159C11.103 15.204 9.04902 14.077 7.08002 14.589L7.45702 16.04ZM8.95202 14.865L6.80002 7.07503L5.35402 7.47503L7.50602 15.265L8.95202 14.865ZM4.90402 5.19703L3.20002 4.72503L2.79802 6.17003L4.50302 6.64303L4.90402 5.19703ZM6.80002 7.07503C6.67288 6.62501 6.43145 6.21556 6.09921 5.88647C5.76697 5.55739 5.35523 5.31987 4.90402 5.19703L4.50502 6.64303C4.93002 6.76103 5.24602 7.08403 5.35402 7.47503L6.80002 7.07503ZM11.11 18.085L20.188 15.725L19.811 14.274L10.732 16.634L11.11 18.085Z" fill="#767679"/>
<path d="M9.56495 8.73004C9.07995 6.97504 8.83795 6.09704 9.24995 5.40604C9.66095 4.71404 10.5659 4.47904 12.3759 4.00804L14.2959 3.51004C16.1059 3.04004 17.0109 2.80404 17.7239 3.20304C18.4369 3.60304 18.6799 4.48004 19.1639 6.23604L19.6789 8.09804C20.1639 9.85304 20.4069 10.731 19.9949 11.423C19.5829 12.114 18.6779 12.35 16.8679 12.82L14.9479 13.319C13.1379 13.789 12.2329 14.024 11.5199 13.625C10.8069 13.225 10.5649 12.348 10.0799 10.593L9.56495 8.73004Z" stroke="#767679" stroke-width="1.5"/>
</svg>
