<svg width="24" height="24" viewBox="0 0 24 24" fill="none" xmlns="http://www.w3.org/2000/svg">
<path d="M12.5 9.25H5V7.75H12.5V9.25Z" fill="#767679"/>
<path d="M12.5 12.75H5V11.25H12.5V12.75Z" fill="#767679"/>
<path d="M12.5 16.25H5V14.75H12.5V16.25Z" fill="#767679"/>
<path fill-rule="evenodd" clip-rule="evenodd" d="M16.5 16V3H1V17.5C1 19.9853 3.01472 22 5.5 22H18.5V21.934C18.7435 21.9774 18.9941 22 19.25 22C21.5972 22 23.4999 20.0973 23.5 17.7501L23.5 16H16.5ZM16.0096 20.5H5.5C3.84315 20.5 2.5 19.1569 2.5 17.5V4.5H15L15.0001 17.75C15 18.7987 15.3799 19.7588 16.0096 20.5ZM22 17.5H16.5001L16.5001 17.75C16.5 19.2688 17.7312 20.5 19.25 20.5C20.7688 20.5 22 19.2688 22 17.7501L22 17.5Z" fill="#767679"/>
</svg>
