<svg width="24" height="24" viewBox="0 0 24 24" fill="none" xmlns="http://www.w3.org/2000/svg">
<path d="M8.62821 12.4359C8.2671 12.4359 7.97436 12.7286 7.97436 13.0897C7.97436 13.4509 8.2671 13.7436 8.62821 13.7436L15.6026 13.7436C15.9637 13.7436 16.2564 13.4509 16.2564 13.0897C16.2564 12.7286 15.9637 12.4359 15.6026 12.4359L8.62821 12.4359Z" fill="#767679"/>
<path fill-rule="evenodd" clip-rule="evenodd" d="M3.39744 8.741L2.53453 9.42728C1.70267 10.0889 1.21795 11.0937 1.21795 12.1565L1.21795 19.8462C1.21795 20.2073 1.51069 20.5 1.87179 20.5H5.38447C5.75971 20.5 6.09286 20.2599 6.21152 19.9039L6.44872 19.1923L17.7821 19.1923L18.0192 19.9039C18.1379 20.2599 18.4711 20.5 18.8463 20.5H22.359C22.7201 20.5 23.0128 20.2073 23.0128 19.8462L23.0128 12.1565C23.0128 11.0937 22.5281 10.0889 21.6962 9.42728L20.8333 8.741L20.7574 8.51282H22.5765C22.9377 8.51282 23.2306 8.22008 23.2308 7.85897C23.231 7.49786 22.9384 7.20513 22.5773 7.20513L20.3224 7.20513L19.6852 5.28978C19.3296 4.22107 18.3298 3.5 17.2035 3.5L12.1154 3.5L7.02725 3.5C5.90095 3.5 4.90114 4.22107 4.5456 5.28978L3.90839 7.20513L1.65422 7.20513C1.29311 7.20513 1.00021 7.49786 1 7.85897C0.999795 8.22008 1.29236 8.51282 1.65347 8.51282H3.47335L3.39744 8.741ZM18.4443 5.70258L19.4518 8.73075L4.779 8.73077L5.78642 5.70258C5.9642 5.16823 6.4641 4.80769 7.02725 4.80769L17.2035 4.80769C17.7667 4.80769 18.2666 5.16823 18.4443 5.70258ZM4.415 9.60256L19.8158 9.60255L20.8823 10.4508C21.2635 10.7539 21.528 11.1724 21.6421 11.636L18.8327 12.0421C18.4753 12.0938 18.2275 12.4254 18.2791 12.7828C18.3308 13.1402 18.6624 13.388 19.0198 13.3363L21.7051 12.9482V17.8846L2.52564 17.8846L2.52564 12.9482L5.21091 13.3363C5.5683 13.388 5.89991 13.1402 5.95157 12.7828C6.00323 12.4254 5.75539 12.0938 5.398 12.0421L2.5887 11.636C2.70273 11.1724 2.9673 10.7539 3.3485 10.4508L4.415 9.60256Z" fill="#767679"/>
</svg>
