<svg width="24" height="24" viewBox="0 0 24 24" fill="none" xmlns="http://www.w3.org/2000/svg">
<path fill-rule="evenodd" clip-rule="evenodd" d="M22.5 8C22.5 6.34315 21.1569 5 19.5 5H4.5C2.84315 5 1.5 6.34314 1.5 8V18C1.5 19.6569 2.84315 21 4.5 21L19.5 21C21.1569 21 22.5 19.6569 22.5 18V8ZM21 18V8C21 7.17157 20.3284 6.5 19.5 6.5L4.5 6.5C3.67157 6.5 3 7.17157 3 8L3 18C3 18.8284 3.67157 19.5 4.5 19.5L19.5 19.5C20.3284 19.5 21 18.8284 21 18Z" fill="#767679"/>
<path d="M14.6464 9.64651C14.8417 9.45125 15.1582 9.45125 15.3535 9.64651C15.5487 9.84177 15.5487 10.1583 15.3535 10.3535L12.707 13L15.3535 15.6465L15.4179 15.7246C15.5461 15.9187 15.5243 16.1827 15.3535 16.3535C15.1826 16.5244 14.9187 16.5462 14.7246 16.418L14.6464 16.3535L12 13.7071L9.35348 16.3535C9.15822 16.5488 8.84171 16.5488 8.64645 16.3535C8.45119 16.1583 8.45119 15.8418 8.64645 15.6465L11.2929 13L8.64645 10.3535L8.58199 10.2754C8.45383 10.0813 8.47558 9.81737 8.64645 9.64651C8.81731 9.47564 9.08127 9.45389 9.27535 9.58206L9.35348 9.64651L12 12.293L14.6464 9.64651Z" fill="#767679"/>
<rect x="5.5" y="3.5" width="1.5" height="4.5" rx="0.75" fill="#767679"/>
<rect x="17" y="3.5" width="1.5" height="4.5" rx="0.75" fill="#767679"/>
</svg>
