<svg width="24" height="24" viewBox="0 0 24 24" fill="none" xmlns="http://www.w3.org/2000/svg">
<path d="M6.0187 5.83821C6.0187 6.08112 6.21562 6.27805 6.45853 6.27805H12.6163C12.8592 6.27805 13.0561 6.08112 13.0561 5.83821C13.0561 5.59529 12.8592 5.39837 12.6163 5.39837H6.45853C6.21562 5.39837 6.0187 5.59529 6.0187 5.83821Z" fill="#767679"/>
<path d="M6.0187 8.47723C6.0187 8.72015 6.21562 8.91707 6.45853 8.91707H12.6163C12.8592 8.91707 13.0561 8.72015 13.0561 8.47723C13.0561 8.23432 12.8592 8.03739 12.6163 8.03739H6.45853C6.21562 8.03739 6.0187 8.23432 6.0187 8.47723Z" fill="#767679"/>
<path d="M6.0187 11.1163C6.0187 11.3592 6.21562 11.5561 6.45853 11.5561H10.4171C10.66 11.5561 10.8569 11.3592 10.8569 11.1163C10.8569 10.8733 10.66 10.6764 10.4171 10.6764H6.45853C6.21562 10.6764 6.0187 10.8733 6.0187 11.1163Z" fill="#767679"/>
<path fill-rule="evenodd" clip-rule="evenodd" d="M2.93984 1C2.69692 1 2.5 1.19692 2.5 1.43984V18.1536C2.5 18.3966 2.69692 18.5935 2.93984 18.5935H16.1349C16.3779 18.5935 16.5748 18.3966 16.5748 18.1536V6.31122L19.8512 6.74892L17.871 21.5717L6.53597 20.0574L6.73154 18.5935H5.4003L5.11159 20.7546C5.07943 20.9954 5.24854 21.2167 5.48931 21.2488L18.5682 22.9961C18.809 23.0282 19.0303 22.8591 19.0624 22.6184L21.2756 6.05172C21.3078 5.81094 21.1387 5.58968 20.8979 5.55751L16.5748 4.97998V1.43984C16.5748 1.19692 16.3779 1 16.1349 1H2.93984ZM3.81951 2.31951L3.81951 17.274H15.2553V2.31951H3.81951Z" fill="#767679"/>
</svg>
