<svg width="24" height="24" viewBox="0 0 24 24" fill="none" xmlns="http://www.w3.org/2000/svg">
<path fill-rule="evenodd" clip-rule="evenodd" d="M15.6798 5.34803C14.8976 5.34723 14.1471 5.65713 13.5933 6.20958C13.0395 6.76204 12.7279 7.51181 12.7268 8.29402C12.7281 9.07624 13.0401 9.82591 13.594 10.3782C14.148 10.9304 14.8986 11.2401 15.6808 11.239C16.463 11.2401 17.2136 10.9304 17.7676 10.3782C18.3215 9.82591 18.6335 9.07624 18.6348 8.29402C18.6343 7.90663 18.5575 7.52312 18.4087 7.16541C18.26 6.8077 18.0422 6.48279 17.7679 6.20923C17.4936 5.93567 17.1681 5.71882 16.81 5.57105C16.4519 5.42328 16.0672 5.3475 15.6798 5.34803ZM14.2278 8.29402C14.2283 8.10361 14.2664 7.91516 14.3397 7.73944C14.4131 7.56372 14.5203 7.40416 14.6553 7.26989C14.7903 7.13562 14.9505 7.02925 15.1266 6.95687C15.3027 6.88448 15.4914 6.8475 15.6818 6.84803C16.4878 6.84803 17.1358 7.49802 17.1358 8.29402C17.1345 8.67842 16.9806 9.04655 16.7079 9.31751C16.4353 9.58848 16.0662 9.74009 15.6818 9.73903C15.2974 9.74009 14.9283 9.58848 14.6557 9.31751C14.383 9.04655 14.2291 8.67842 14.2278 8.29402Z" fill="#767679"/>
<path fill-rule="evenodd" clip-rule="evenodd" d="M9.5299 20.878C9.81995 20.4866 9.97189 20.01 9.9619 19.523C10.3539 19.639 10.7419 19.653 11.1139 19.583C11.8819 19.437 12.4509 18.951 12.7529 18.551L12.7579 18.544L12.7629 18.537C12.9733 18.2501 13.1179 17.9204 13.1864 17.5712C13.2548 17.2221 13.2454 16.8621 13.1589 16.517C13.0851 16.2163 12.9635 15.9293 12.7989 15.667C12.7228 15.5265 12.6316 15.3947 12.5269 15.274L12.5359 15.264L12.9999 14.802C13.3819 14.985 13.7959 15.1 14.1579 15.175C14.6592 15.2776 15.1692 15.3318 15.6809 15.337C19.5819 15.337 22.7499 12.187 22.7499 8.293C22.7499 4.401 19.5819 1.25 15.6799 1.25C11.7799 1.25 8.6109 4.4 8.6109 8.293C8.61466 9.20152 8.80884 10.0992 9.1809 10.928L1.9249 18.154C1.58637 18.4967 1.36033 18.9345 1.2769 19.409C1.1779 20.012 1.3399 20.683 1.9249 21.265L2.8069 22.143L2.8489 22.183C3.19115 22.4696 3.60494 22.6576 4.0459 22.727C4.35997 22.7756 4.68112 22.748 4.98224 22.6463C5.28335 22.5447 5.55558 22.372 5.7759 22.143L6.3419 21.579C6.82963 21.864 7.40427 21.962 7.9589 21.855C8.57791 21.7323 9.13184 21.3904 9.5189 20.892L9.5249 20.885L9.5299 20.878ZM10.1109 8.293C10.1109 5.235 12.6019 2.75 15.6809 2.75C18.7589 2.75 21.2499 5.235 21.2499 8.293C21.2499 11.353 18.7599 13.837 15.6799 13.837C15.4079 13.837 14.9369 13.804 14.4619 13.707C13.9649 13.603 13.5749 13.45 13.3669 13.277C13.2231 13.158 13.0402 13.0969 12.8538 13.1056C12.6674 13.1143 12.491 13.1922 12.3589 13.324L11.4769 14.202C11.2759 14.402 11.0819 14.63 10.9789 14.893C10.8489 15.226 10.8909 15.546 11.0389 15.813C11.1269 15.97 11.2689 16.12 11.3279 16.183L11.3479 16.204C11.4179 16.281 11.4549 16.331 11.4829 16.387L11.5099 16.44L11.5399 16.482L11.5469 16.492C11.5562 16.5073 11.5702 16.5327 11.5889 16.568C11.6269 16.641 11.6709 16.744 11.6989 16.865C11.7353 16.9994 11.7408 17.1404 11.7148 17.2773C11.6888 17.4141 11.6321 17.5433 11.5489 17.655C11.4089 17.838 11.1419 18.051 10.8349 18.109C10.5769 18.158 10.1569 18.126 9.5969 17.569C9.45632 17.4289 9.26591 17.3502 9.0674 17.3502C8.8689 17.3502 8.67849 17.4289 8.5379 17.569L8.2439 17.861C8.10799 17.9961 8.02895 18.1781 8.023 18.3696C8.01704 18.5612 8.08464 18.7477 8.2119 18.891C8.2239 18.907 8.24224 18.9337 8.2669 18.971C8.3149 19.046 8.3709 19.151 8.4109 19.271C8.4869 19.496 8.4989 19.737 8.3159 19.997C8.1959 20.152 7.9529 20.329 7.6769 20.381C7.4429 20.426 7.1429 20.393 6.8049 20.056C6.66432 19.9159 6.47391 19.8372 6.2754 19.8372C6.0769 19.8372 5.88649 19.9159 5.7459 20.056L4.7169 21.081C4.5519 21.245 4.4069 21.264 4.2649 21.243C4.11088 21.2147 3.96564 21.1507 3.8409 21.056L2.9839 20.202C2.7449 19.965 2.7359 19.782 2.7569 19.652C2.78909 19.4879 2.8679 19.3365 2.9839 19.216L10.6279 11.603C10.7477 11.4836 10.8233 11.327 10.8424 11.1589C10.8615 10.9908 10.8229 10.8212 10.7329 10.678L10.7309 10.675C10.7014 10.6262 10.6741 10.5761 10.6489 10.525C10.2989 9.8328 10.1147 9.06866 10.1109 8.293ZM8.2009 18.876C8.2009 18.8773 8.20224 18.879 8.2049 18.881L8.2039 18.88L8.2009 18.876Z" fill="#767679"/>
</svg>
