<svg width="24" height="24" viewBox="0 0 24 24" fill="none" xmlns="http://www.w3.org/2000/svg">
<path d="M18.5 9H12.5V10.5H18.5V9Z" fill="#767679"/>
<path d="M9.25 10.25C9.25 11.2135 8.95703 11.5 8 11.5C7.04297 11.5 6.74999 11.207 6.75 10.25C6.75001 9.29297 7.04297 9 8 9C8.95703 9 9.25 9.29167 9.25 10.25Z" fill="#767679"/>
<path d="M5 15.5C5 13 5.34375 12.5 8 12.5C10.6562 12.5 11 13 11 15.5H5Z" fill="#767679"/>
<path fill-rule="evenodd" clip-rule="evenodd" d="M20 4C21.3807 4 22.5 5.11929 22.5 6.5V17.5C22.5 18.8807 21.3807 20 20 20L4 20C2.61929 20 1.5 18.8807 1.5 17.5V6.5C1.5 5.11929 2.61929 4 4 4H20ZM21 6.5V17.5C21 18.0523 20.5523 18.5 20 18.5L4 18.5C3.44772 18.5 3 18.0523 3 17.5L3 6.5C3 5.94771 3.44772 5.5 4 5.5L20 5.5C20.5523 5.5 21 5.94772 21 6.5Z" fill="#767679"/>
</svg>
