<svg width="24" height="24" viewBox="0 0 24 24" fill="none" xmlns="http://www.w3.org/2000/svg">
<path d="M13.1251 16.125C13.1251 15.8266 13.0066 15.5405 12.7956 15.3295C12.5846 15.1185 12.2985 15 12.0001 15C11.7017 15 11.4156 15.1185 11.2046 15.3295C10.9936 15.5405 10.8751 15.8266 10.8751 16.125C10.8751 16.4234 10.9936 16.7095 11.2046 16.9205C11.4156 17.1315 11.7017 17.25 12.0001 17.25C12.2985 17.25 12.5846 17.1315 12.7956 16.9205C13.0066 16.7095 13.1251 16.4234 13.1251 16.125ZM12.7381 7.365C12.7047 7.18058 12.6035 7.01534 12.4543 6.90183C12.3052 6.78832 12.119 6.73475 11.9323 6.75169C11.7457 6.76862 11.5721 6.85483 11.4459 6.99333C11.3196 7.13182 11.2498 7.31258 11.2501 7.5V12.75L11.2621 12.885C11.2955 13.0694 11.3967 13.2347 11.5459 13.3482C11.695 13.4617 11.8812 13.5152 12.0679 13.4983C12.2545 13.4814 12.4281 13.3952 12.5543 13.2567C12.6806 13.1182 12.7504 12.9374 12.7501 12.75V7.5L12.7381 7.365ZM12.0001 3C10.4387 2.99947 8.90398 3.40519 7.5468 4.17727C6.18962 4.94936 5.05666 6.06125 4.25924 7.4037C3.46182 8.74615 3.02738 10.273 2.9986 11.8341C2.96982 13.3953 3.3477 14.9371 4.0951 16.308L3.0301 20.043C2.99263 20.1742 2.99163 20.313 3.02721 20.4447C3.0628 20.5764 3.13362 20.6959 3.23205 20.7903C3.33049 20.8847 3.45281 20.9505 3.58585 20.9806C3.71889 21.0107 3.85762 21.0039 3.9871 20.961L7.4941 19.7925C8.68939 20.4832 10.0276 20.8897 11.4051 20.9805C12.7826 21.0713 14.1625 20.844 15.4382 20.3162C16.7138 19.7884 17.8509 18.9742 18.7615 17.9366C19.6721 16.899 20.3318 15.6658 20.6896 14.3325C21.0474 12.9992 21.0936 11.6014 20.8248 10.2473C20.5559 8.89323 19.9792 7.61914 19.1392 6.52362C18.2992 5.4281 17.2184 4.54051 15.9804 3.9295C14.7425 3.3185 13.3806 3.00046 12.0001 3ZM4.5001 12C4.50035 10.3359 5.05403 8.71915 6.07397 7.40426C7.09392 6.08938 8.5222 5.15104 10.134 4.73699C11.7457 4.32293 13.4494 4.45666 14.9768 5.11713C16.5042 5.7776 17.7686 6.9273 18.5709 8.38523C19.3732 9.84315 19.6678 11.5265 19.4084 13.1702C19.149 14.814 18.3503 16.3248 17.138 17.4648C15.9257 18.6048 14.3687 19.3092 12.7122 19.4672C11.0556 19.6252 9.39351 19.2278 7.9876 18.3375C7.89356 18.2779 7.78742 18.2399 7.67689 18.2265C7.56637 18.213 7.45422 18.2243 7.3486 18.2595L4.8616 19.089L5.6266 16.4175C5.65447 16.3191 5.66193 16.2161 5.64852 16.1147C5.63511 16.0133 5.6011 15.9158 5.5486 15.828C4.86169 14.6693 4.4995 13.347 4.5001 12Z" fill="#767679"/>
</svg>
