<svg width="24" height="24" viewBox="0 0 24 24" fill="none" xmlns="http://www.w3.org/2000/svg">
<g clip-path="url(#clip0_2921_8057)">
<path fill-rule="evenodd" clip-rule="evenodd" d="M0.859497 6.14997C0.602138 6.27102 0.384541 6.46281 0.232127 6.70292C0.079714 6.94304 -0.0012207 7.22157 -0.0012207 7.50597C-0.0012207 7.79038 0.079714 8.06891 0.232127 8.30903C0.384541 8.54914 0.602138 8.74093 0.859497 8.86197L3.0045 9.87448V15.7545C3.0045 16.8675 3.366 18.1095 4.4205 18.8745C5.7495 19.8345 8.1705 21.0045 12.0105 21.0045C15.8505 21.0045 18.2655 19.827 19.6005 18.8745C20.655 18.1125 21.0165 16.8795 21.0165 15.7545V9.87448L22.5165 9.16497L23.7841 8.05253L24.0165 7.49997C24.0166 7.2159 23.936 6.93765 23.7841 6.6976C23.6322 6.45754 23.4152 6.26556 23.1585 6.14397L14.5785 2.09397C13.7766 1.71476 12.9006 1.51807 12.0135 1.51807C11.1264 1.51807 10.2504 1.71476 9.4485 2.09397L0.868497 6.14397L0.859497 6.14997ZM4.5045 15.75V10.575L9.4395 12.915C10.2414 13.2942 11.1174 13.4909 12.0045 13.4909C12.8916 13.4909 13.7676 13.2942 14.5695 12.915L19.5045 10.575V15.75C19.5045 16.584 19.2345 17.265 18.7095 17.64C17.6235 18.4245 15.5145 19.5 12.0045 19.5C8.4945 19.5 6.3795 18.432 5.2995 17.64C4.776 17.262 4.5045 16.5765 4.5045 15.75ZM10.0845 3.44997C10.6846 3.16569 11.3404 3.01822 12.0045 3.01822C12.6686 3.01822 13.3244 3.16569 13.9245 3.44997L22.5045 7.49997L13.9245 11.55C13.3244 11.8343 12.6686 11.9817 12.0045 11.9817C11.3404 11.9817 10.6846 11.8343 10.0845 11.55L1.5045 7.49997L10.0845 3.44997Z" fill="#767679"/>
<path fill-rule="evenodd" clip-rule="evenodd" d="M23.1559 6.15046C23.4132 6.27151 23.6308 6.46329 23.7833 6.70341C23.9357 6.94353 24.0166 7.22206 24.0166 7.50646C24.0166 7.79087 23.9357 8.0694 23.7833 8.30951C23.6308 8.54963 23.4132 8.74142 23.1559 8.86246L21.0109 9.87496V15.755C21.0109 16.868 20.6494 18.11 19.5949 18.875C18.2659 19.835 15.8449 21.005 12.0049 21.005C8.16488 21.005 5.74988 19.8275 4.41488 18.875C3.36038 18.113 2.99888 16.88 2.99888 15.755V9.87496L1.49888 9.16546L0.231318 8.05302L-0.00111771 7.50046C-0.00118065 7.21639 0.0794258 6.93814 0.231318 6.69809C0.383209 6.45803 0.600145 6.26605 0.856884 6.14446L9.43688 2.09446C10.2388 1.71524 11.1148 1.51855 12.0019 1.51855C12.8889 1.51855 13.765 1.71524 14.5669 2.09446L23.1469 6.14446L23.1559 6.15046ZM19.5109 15.7505V10.5755L14.5759 12.9155C13.774 13.2947 12.8979 13.4914 12.0109 13.4914C11.1238 13.4914 10.2478 13.2947 9.44588 12.9155L4.51088 10.5755V15.7505C4.51088 16.5845 4.78089 17.2655 5.30589 17.6405C6.39189 18.425 8.50088 19.5005 12.0109 19.5005C15.5209 19.5005 17.6359 18.4325 18.7159 17.6405C19.2394 17.2625 19.5109 16.577 19.5109 15.7505ZM13.9309 3.45046C13.3307 3.16618 12.675 3.01871 12.0109 3.01871C11.3468 3.01871 10.691 3.16618 10.0909 3.45046L1.51088 7.50046L10.0909 11.5505C10.691 11.8347 11.3468 11.9822 12.0109 11.9822C12.675 11.9822 13.3307 11.8347 13.9309 11.5505L22.5109 7.50046L13.9309 3.45046Z" fill="#767679"/>
<path d="M12.5938 6.29418C11.4096 6.37706 10.4888 6.99912 10.5362 7.68327C10.5472 7.84075 10.6083 7.98832 10.7107 8.12041L6.02987 10.8853L6.03082 10.8989L6.14174 12.5691C6.3051 15.2176 6.34379 17.0707 6.2448 18.4248L6.00964 20.0457C5.83883 20.7416 5.5931 21.2269 5.27086 21.6324C4.92267 22.0706 4.46786 22.4399 3.84892 22.885C3.62486 23.0462 3.57331 23.3581 3.73419 23.5822C3.8954 23.8064 4.20818 23.8581 4.43236 23.6969C5.06297 23.2434 5.61508 22.808 6.05449 22.255C6.43991 21.77 6.72499 21.2116 6.92439 20.4996C6.87846 20.4806 6.96966 20.5192 6.92439 20.4996L7.19969 18.9767C7.34735 17.5697 7.32662 14.0498 7.17111 11.3723L11.7138 8.68952C12.0293 8.76733 12.3887 8.79991 12.7671 8.77347C13.9516 8.69064 14.8734 8.06772 14.8256 7.38333C14.7773 6.69919 13.778 6.21136 12.5938 6.29418Z" fill="#767679"/>
</g>
<defs>
<clipPath id="clip0_2921_8057">
<rect width="24" height="24" fill="white"/>
</clipPath>
</defs>
</svg>
