<svg width="24" height="24" viewBox="0 0 24 24" fill="none" xmlns="http://www.w3.org/2000/svg">
<path d="M8 15C7.72386 15 7.5 15.2239 7.5 15.5C7.5 15.7761 7.72386 16 8 16H16C16.2761 16 16.5 15.7761 16.5 15.5C16.5 15.2239 16.2761 15 16 15H8Z" fill="#767679"/>
<path d="M7.5 18C7.5 17.7239 7.72386 17.5 8 17.5H16C16.2761 17.5 16.5 17.7239 16.5 18C16.5 18.2761 16.2761 18.5 16 18.5H8C7.72386 18.5 7.5 18.2761 7.5 18Z" fill="#767679"/>
<path d="M16.1708 6.83539C16.356 6.46491 16.2058 6.0144 15.8354 5.82916C15.4649 5.64392 15.0144 5.79409 14.8291 6.16457L13.5364 8.74998H9.99995C9.72984 8.74998 9.4806 8.89522 9.34743 9.13022L7.64742 12.1302C7.44321 12.4906 7.5698 12.9483 7.93017 13.1525C8.29055 13.3567 8.74824 13.2301 8.95245 12.8697L10.437 10.25H13.9999C14.284 10.25 14.5437 10.0895 14.6708 9.83539L16.1708 6.83539Z" fill="#767679"/>
<path fill-rule="evenodd" clip-rule="evenodd" d="M4 3.76C4 3.04824 4 2.69236 4.17292 2.43792C4.24376 2.33367 4.33367 2.24376 4.43792 2.17292C4.69236 2 5.04824 2 5.76 2H18.24C18.9518 2 19.3076 2 19.5621 2.17292C19.6663 2.24376 19.7562 2.33367 19.8271 2.43792C20 2.69236 20 3.04824 20 3.76V20.24C20 20.9518 20 21.3076 19.8271 21.5621C19.7562 21.6663 19.6663 21.7562 19.5621 21.8271C19.3076 22 18.9518 22 18.24 22H5.76C5.04824 22 4.69236 22 4.43792 21.8271C4.33367 21.7562 4.24376 21.6663 4.17292 21.5621C4 21.3076 4 20.9518 4 20.24V3.76ZM18.4996 3.50039C18.5275 9.16631 18.5275 14.8337 18.4996 20.4996C14.1669 20.521 9.83308 20.521 5.50039 20.4996C5.47252 14.8337 5.47252 9.1663 5.50039 3.50039C9.83309 3.47908 14.1669 3.47908 18.4996 3.50039Z" fill="#767679"/>
</svg>
