<svg width="25" height="24" viewBox="0 0 25 24" fill="none" xmlns="http://www.w3.org/2000/svg">
<path fill-rule="evenodd" clip-rule="evenodd" d="M7.25 7.25C7.25 4.35051 9.60051 2 12.5 2C15.3995 2 17.75 4.35051 17.75 7.25V9.75H19C20.3807 9.75 21.5 10.8693 21.5 12.25V20.25C21.5 21.6307 20.3807 22.75 19 22.75H6C4.61929 22.75 3.5 21.6307 3.5 20.25V12.25C3.5 10.8693 4.61929 9.75 6 9.75H7.25V7.25ZM16.25 7.25V9.75H8.75V7.25C8.75 5.17893 10.4289 3.5 12.5 3.5C14.5711 3.5 16.25 5.17893 16.25 7.25ZM6 11.25C5.44772 11.25 5 11.6977 5 12.25V20.25C5 20.8023 5.44772 21.25 6 21.25H19C19.5523 21.25 20 20.8023 20 20.25V12.25C20 11.6977 19.5523 11.25 19 11.25H6Z" fill="black"/>
<path d="M19 11.25C19.5523 11.25 20 11.6977 20 12.25V20.25C20 20.8023 19.5523 21.25 19 21.25H6C5.44772 21.25 5 20.8023 5 20.25V12.25C5 11.6977 5.44772 11.25 6 11.25H19Z" fill="white"/>
<path fill-rule="evenodd" clip-rule="evenodd" d="M12.5 3.5C14.5711 3.5 16.25 5.17893 16.25 7.25V9.75H8.75V7.25C8.75 5.17893 10.4289 3.5 12.5 3.5ZM12.5 4.5C10.9812 4.5 9.75 5.73122 9.75 7.25V8.75H15.25V7.25C15.25 5.73122 14.0188 4.5 12.5 4.5Z" fill="white"/>
<path fill-rule="evenodd" clip-rule="evenodd" d="M12.5 1C15.9518 1 18.75 3.79822 18.75 7.25V8.75H19C20.933 8.75 22.5 10.317 22.5 12.25V20.25C22.5 22.183 20.933 23.75 19 23.75H6C4.067 23.75 2.5 22.183 2.5 20.25V12.25C2.5 10.317 4.067 8.75 6 8.75H6.25V7.25C6.25 3.79822 9.04822 1 12.5 1ZM12.5 2C9.60051 2 7.25 4.35051 7.25 7.25V9.75H6C4.61929 9.75 3.5 10.8693 3.5 12.25V20.25C3.5 21.6307 4.61929 22.75 6 22.75H19C20.3807 22.75 21.5 21.6307 21.5 20.25V12.25C21.5 10.8693 20.3807 9.75 19 9.75H17.75V7.25C17.75 4.35051 15.3995 2 12.5 2Z" fill="white"/>
</svg>
