<svg width="25" height="24" viewBox="0 0 25 24" fill="none" xmlns="http://www.w3.org/2000/svg">
<path fill-rule="evenodd" clip-rule="evenodd" d="M12.5 1C9.60051 1 7.25 3.35051 7.25 6.25V9.75H6C4.61929 9.75 3.5 10.8693 3.5 12.25V20.25C3.5 21.6307 4.61929 22.75 6 22.75H19C20.3807 22.75 21.5 21.6307 21.5 20.25V12.25C21.5 10.8693 20.3807 9.75 19 9.75H8.75V6.25C8.75 4.17893 10.4289 2.5 12.5 2.5C14.5711 2.5 16.25 4.17893 16.25 6.25H17.75C17.75 3.35051 15.3995 1 12.5 1ZM5 12.25C5 11.6977 5.44772 11.25 6 11.25H19C19.5523 11.25 20 11.6977 20 12.25V20.25C20 20.8023 19.5523 21.25 19 21.25H6C5.44772 21.25 5 20.8023 5 20.25V12.25Z" fill="black"/>
<path d="M19 11.25C19.5523 11.25 20 11.6977 20 12.25V20.25C20 20.8023 19.5523 21.25 19 21.25H6C5.44772 21.25 5 20.8023 5 20.25V12.25C5 11.6977 5.44772 11.25 6 11.25H19Z" fill="white"/>
<path fill-rule="evenodd" clip-rule="evenodd" d="M12.5 0C15.9518 0 18.75 2.79822 18.75 6.25V7.25H15.25V6.25C15.25 4.73122 14.0188 3.5 12.5 3.5C10.9812 3.5 9.75 4.73122 9.75 6.25V8.75H19C20.933 8.75 22.5 10.317 22.5 12.25V20.25C22.5 22.183 20.933 23.75 19 23.75H6C4.067 23.75 2.5 22.183 2.5 20.25V12.25C2.5 10.317 4.067 8.75 6 8.75H6.25V6.25C6.25 2.79822 9.04822 0 12.5 0ZM12.5 1C9.60051 1 7.25 3.35051 7.25 6.25V9.75H6C4.61929 9.75 3.5 10.8693 3.5 12.25V20.25C3.5 21.6307 4.61929 22.75 6 22.75H19C20.3807 22.75 21.5 21.6307 21.5 20.25V12.25C21.5 10.8693 20.3807 9.75 19 9.75H8.75V6.25C8.75 4.17893 10.4289 2.5 12.5 2.5C14.5711 2.5 16.25 4.17893 16.25 6.25H17.75C17.75 3.35051 15.3995 1 12.5 1Z" fill="white"/>
</svg>
