<svg width="20" height="20" viewBox="0 0 20 20" fill="none" xmlns="http://www.w3.org/2000/svg">
<path d="M10 2.23071C14.1421 2.23071 17.5 5.58858 17.5 9.73071C17.5 13.8728 14.1421 17.2307 10 17.2307C5.85786 17.2307 2.5 13.8728 2.5 9.73071C2.5 5.58858 5.85786 2.23071 10 2.23071ZM13.084 6.08032L8.7998 10.6936L6.91602 8.66431L6.57617 8.2981L6.20898 8.63892L5.11035 9.65942L4.74414 9.99927L5.08398 10.3655L8.43359 13.9729L8.7998 14.3674L9.16602 13.9729L14.916 7.78149L15.2559 7.41528L14.8896 7.07446L13.791 6.05396L13.4238 5.71411L13.084 6.08032Z" fill="white" stroke="white"/>
</svg>
