<svg width="24" height="24" viewBox="0 0 24 24" fill="none" xmlns="http://www.w3.org/2000/svg">
<path fill-rule="evenodd" clip-rule="evenodd" d="M12 1C8.24457 1 5.15721 3.9614 5.00087 7.71358L4.84938 11.3494C4.79868 12.566 4.12616 13.6712 3.06887 14.2754L2.26556 14.7344C1.63756 15.0933 1.25 15.7611 1.25 16.4844C1.25 17.5976 2.1524 18.5 3.26556 18.5H8.2582C8.38685 20.4545 10.0129 22 12 22C13.9871 22 15.6132 20.4545 15.7418 18.5H20.7344C21.8476 18.5 22.75 17.5976 22.75 16.4844C22.75 15.7611 22.3624 15.0933 21.7344 14.7344L20.9311 14.2754C19.8738 13.6712 19.2013 12.566 19.1506 11.3494L18.9991 7.71358C18.8428 3.9614 15.7554 1 12 1ZM14.2363 18.5H9.76373C9.88809 19.625 10.8419 20.5 12 20.5C13.1581 20.5 14.1119 19.625 14.2363 18.5ZM6.49957 7.77602C6.62243 4.82729 9.04871 2.5 12 2.5C14.9513 2.5 17.3776 4.82729 17.5004 7.77602L17.6519 11.4118C17.7241 13.144 18.6816 14.7176 20.1869 15.5778L20.9902 16.0368C21.1509 16.1286 21.25 16.2994 21.25 16.4844C21.25 16.7692 21.0192 17 20.7344 17H3.26556C2.98083 17 2.75 16.7692 2.75 16.4844C2.75 16.2994 2.84914 16.1286 3.00977 16.0368L3.81308 15.5778C5.3184 14.7176 6.2759 13.144 6.34808 11.4118L6.49957 7.77602Z" fill="black"/>
</svg>
