<svg width="24" height="24" viewBox="0 0 24 24" fill="none" xmlns="http://www.w3.org/2000/svg">
<path d="M6.5 11.5625C6.5 10.5781 6.65 10.4375 7.625 10.4375C8.6 10.4375 8.75001 10.5957 8.75 11.5625C8.74999 12.5375 8.58008 12.6875 7.625 12.6875C6.65 12.6875 6.5 12.5375 6.5 11.5625Z" fill="#767679"/>
<path d="M12 12.6875C11.0156 12.6875 10.875 12.5375 10.875 11.5625C10.875 10.5875 11.0332 10.4375 12 10.4375C12.975 10.4375 13.125 10.6074 13.125 11.5625C13.125 12.5375 12.975 12.6875 12 12.6875Z" fill="#767679"/>
<path d="M7.625 14.8125C6.65 14.8125 6.5 14.9531 6.5 15.9375C6.5 16.9125 6.65 17.0625 7.625 17.0625C8.58008 17.0625 8.74999 16.9125 8.75 15.9375C8.75001 14.9707 8.6 14.8125 7.625 14.8125Z" fill="#767679"/>
<path d="M12 14.8125C12.9844 14.8125 13.125 14.9625 13.125 15.9375C13.125 16.9125 12.9668 17.0625 12 17.0625C11.025 17.0625 10.875 16.8926 10.875 15.9375C10.875 14.9625 11.025 14.8125 12 14.8125Z" fill="#767679"/>
<path d="M15.25 11.5625C15.25 12.5375 15.3906 12.6875 16.375 12.6875C17.35 12.6875 17.5 12.5375 17.5 11.5625C17.5 10.6074 17.35 10.4375 16.375 10.4375C15.4082 10.4375 15.25 10.5875 15.25 11.5625Z" fill="#767679"/>
<path fill-rule="evenodd" clip-rule="evenodd" d="M21 18.5C21 19.8807 19.8807 21 18.5 21H5.5C4.11929 21 3 19.8807 3 18.5V3H21V18.5ZM19.5 18.5C19.5 19.0523 19.0523 19.5 18.5 19.5H5.5C4.94772 19.5 4.5 19.0523 4.5 18.5V8H19.5V18.5ZM4.5 4.5V6.5H19.5V4.5H4.5Z" fill="#767679"/>
</svg>
