<svg width="24" height="24" viewBox="0 0 24 24" fill="none" xmlns="http://www.w3.org/2000/svg">
<path fill-rule="evenodd" clip-rule="evenodd" d="M2.00001 1.43946L0.939351 2.50012L21 22.5608L22.0607 21.5001L18.459 17.8984C20.6188 16.5941 22.4484 14.6695 23.6644 12.3481L23.8467 12.0001L23.6644 11.652C21.3489 7.2317 16.8085 4.25006 12 4.25006C9.99184 4.25006 8.03045 4.77011 6.25835 5.6978L2.00001 1.43946ZM7.37709 6.81654L9.11065 8.5501C9.89237 7.89473 10.9001 7.50012 12 7.50012C14.4853 7.50012 16.5 9.51484 16.5 12.0001C16.5 13.1 16.1054 14.1078 15.45 14.8895L17.3621 16.8015C19.3083 15.7076 20.9918 14.0466 22.1464 12.0001C20.0116 8.21607 16.0686 5.75006 12 5.75006C10.406 5.75006 8.83133 6.12857 7.37709 6.81654ZM14.3832 13.8226C14.7701 13.3174 15 12.6856 15 12.0001C15 10.3433 13.6569 9.00012 12 9.00012C11.3145 9.00012 10.6827 9.23004 10.1775 9.61696L14.3832 13.8226Z" fill="black"/>
<path d="M0.335632 11.6521C1.16753 10.064 2.2866 8.66159 3.60211 7.51643L4.66521 8.57953C3.55659 9.52826 2.59583 10.6845 1.85363 12.0001C3.98839 15.7841 7.93136 18.2501 12 18.2501C12.712 18.2501 13.4201 18.1745 14.1153 18.0297L15.3524 19.2668C14.2675 19.5821 13.1413 19.7501 12 19.7501C7.1915 19.7501 2.65113 16.7685 0.335632 12.3481L0.153332 12.0001L0.335632 11.6521Z" fill="black"/>
<path d="M7.5 12.0001C7.5 11.8132 7.5114 11.6289 7.53355 11.4479L9.22307 13.1374C9.52735 13.8796 10.1205 14.4728 10.8627 14.7771L12.5522 16.4666C12.3713 16.4887 12.187 16.5001 12 16.5001C9.51472 16.5001 7.5 14.4854 7.5 12.0001Z" fill="black"/>
</svg>
