<svg width="24" height="24" viewBox="0 0 24 24" fill="none" xmlns="http://www.w3.org/2000/svg">
<path fill-rule="evenodd" clip-rule="evenodd" d="M16.1533 11.9395C16.1533 14.1486 14.3625 15.9395 12.1533 15.9395C9.9442 15.9395 8.15334 14.1486 8.15334 11.9395C8.15334 9.73031 9.9442 7.93945 12.1533 7.93945C14.3625 7.93945 16.1533 9.73031 16.1533 11.9395ZM14.6533 11.9395C14.6533 13.3202 13.534 14.4395 12.1533 14.4395C10.7726 14.4395 9.65334 13.3202 9.65334 11.9395C9.65334 10.5587 10.7726 9.43945 12.1533 9.43945C13.534 9.43945 14.6533 10.5587 14.6533 11.9395Z" fill="black"/>
<path fill-rule="evenodd" clip-rule="evenodd" d="M12 4.25C7.19149 4.25 2.65113 7.23171 0.335632 11.652L0.153332 12.0001L0.335632 12.3481C2.65113 16.7684 7.1915 19.75 12 19.75C16.8085 19.75 21.3489 16.7684 23.6644 12.348L23.8467 12L23.6644 11.652C21.3489 7.23164 16.8085 4.25 12 4.25ZM12 18.25C7.93136 18.25 3.98839 15.784 1.85363 12.0001C3.9884 8.21606 7.93137 5.75 12 5.75C16.0686 5.75 20.0116 8.21601 22.1464 12C20.0116 15.784 16.0686 18.25 12 18.25Z" fill="black"/>
</svg>
