<svg width="24" height="24" viewBox="0 0 24 24" fill="none" xmlns="http://www.w3.org/2000/svg">
<path d="M9.75 9V18.25H11.25V9H9.75Z" fill="#767679"/>
<path d="M13.75 9V18.25H15.25V9H13.75Z" fill="#767679"/>
<path fill-rule="evenodd" clip-rule="evenodd" d="M17.25 4.25V5.5H22V7H20.2178L19.3431 19.9022C19.263 21.0831 18.2818 22 17.0983 22H7.90175C6.71818 22 5.73696 21.083 5.6569 19.9022L4.78218 7H3V5.5H7.75V4.25C7.75 3.00736 8.75736 2 10 2H12.5H15C16.2426 2 17.25 3.00736 17.25 4.25ZM15.75 4.25V5.5H9.25V4.25C9.25 3.83579 9.58579 3.5 10 3.5H15C15.4142 3.5 15.75 3.83579 15.75 4.25ZM6.28562 7H18.7144L17.8465 19.8007C17.8198 20.1944 17.4928 20.5 17.0983 20.5H7.90175C7.50723 20.5 7.18015 20.1944 7.15347 19.8007L6.28562 7Z" fill="#767679"/>
</svg>
