<svg width="24" height="24" viewBox="0 0 24 24" fill="none" xmlns="http://www.w3.org/2000/svg">
<path d="M0.450283 7.99832C0.450283 4.35675 3.28818 1.3501 6.85481 1.3501C8.97001 1.3501 10.8329 2.41182 11.9953 4.03244C13.1577 2.41182 15.0205 1.3501 17.1358 1.3501C20.7024 1.3501 23.5403 4.35675 23.5403 7.99832C23.5403 9.09273 23.2624 10.0986 22.8563 10.9902C21.8291 13.2454 20.0218 15.5477 18.0976 17.561C16.1664 19.5815 14.0762 21.3536 12.4364 22.5461C12.1734 22.7374 11.8171 22.7374 11.5542 22.5461C9.93312 21.3672 7.79121 19.6912 5.82729 17.7109C3.87159 15.7389 2.04516 13.4184 1.1148 10.9432C0.798784 10.1025 0.450283 9.11289 0.450283 7.99832Z" fill="white"/>
</svg>
