<svg width="24" height="24" viewBox="0 0 24 24" fill="none" xmlns="http://www.w3.org/2000/svg">
<path fill-rule="evenodd" clip-rule="evenodd" d="M6.85481 2.84998C4.17562 2.84998 1.95028 5.12478 1.95028 7.9982C1.95028 8.81443 2.20396 9.57748 2.51889 10.4153C3.34121 12.6031 4.99933 14.7457 6.89235 16.6545C8.60634 18.3828 10.4743 19.8814 11.9932 21.0075C13.4903 19.8777 15.3157 18.3004 17.0132 16.5244C18.8874 14.5635 20.5646 12.4027 21.4912 10.3683C21.8284 9.62801 22.0403 8.83459 22.0403 7.9982C22.0403 5.12478 19.8149 2.84998 17.1358 2.84998C15.1764 2.84998 13.4659 4.06021 12.6816 5.84002C12.5617 6.11203 12.2925 6.28758 11.9953 6.28758C11.698 6.28758 11.4288 6.11203 11.309 5.84002C10.5247 4.06021 8.81419 2.84998 6.85481 2.84998ZM0.450283 7.9982C0.450283 4.35663 3.28818 1.34998 6.85481 1.34998C8.97001 1.34998 10.8329 2.4117 11.9953 4.03231C13.1577 2.4117 15.0205 1.34998 17.1358 1.34998C20.7024 1.34998 23.5403 4.35663 23.5403 7.9982C23.5403 9.09261 23.2624 10.0984 22.8563 10.9901C21.8291 13.2453 20.0218 15.5476 18.0976 17.5609C16.1664 19.5814 14.0762 21.3534 12.4364 22.546C12.1734 22.7373 11.8171 22.7373 11.5542 22.546C9.93312 21.3671 7.79121 19.6911 5.82729 17.7108C3.87159 15.7388 2.04516 13.4183 1.1148 10.9431C0.798784 10.1023 0.450283 9.11277 0.450283 7.9982Z" fill="white"/>
</svg>
