<svg width="32" height="32" viewBox="0 0 32 32" fill="none" xmlns="http://www.w3.org/2000/svg">
<path d="M11.5996 16C11.5996 16.6076 11.1071 17.1001 10.4995 17.1001C9.89192 17.1001 9.39939 16.6076 9.39939 16C9.39939 15.3924 9.89192 14.8999 10.4995 14.8999C11.1071 14.8999 11.5996 15.3924 11.5996 16Z" fill="#767679"/>
<path d="M17.1001 16C17.1001 16.6076 16.6076 17.1001 16 17.1001C15.3924 17.1001 14.8999 16.6076 14.8999 16C14.8999 15.3924 15.3924 14.8999 16 14.8999C16.6076 14.8999 17.1001 15.3924 17.1001 16Z" fill="#767679"/>
<path d="M22.6006 16C22.6006 16.6076 22.1081 17.1001 21.5005 17.1001C20.8929 17.1001 20.4004 16.6076 20.4004 16C20.4004 15.3924 20.8929 14.8999 21.5005 14.8999C22.1081 14.8999 22.6006 15.3924 22.6006 16Z" fill="#767679"/>
</svg>
