<svg width="32" height="32" viewBox="0 0 32 32" fill="none" xmlns="http://www.w3.org/2000/svg">
<path fill-rule="evenodd" clip-rule="evenodd" d="M7.5 14.5265L7.50104 23.499H23.499L23.5 16.0011C23.5 16.0011 21.6322 16.0011 20.4354 16.0011C20.1582 16.0011 19.8935 15.886 19.7043 15.6834L13.0752 8.57965L11.9459 7.59103C12.1997 7.3203 12.3266 7.18493 12.4875 7.10482C12.5192 7.08903 12.5518 7.07493 12.585 7.06259C12.7535 7 12.939 7 13.3101 7H18.6899C19.061 7 19.2465 7 19.415 7.06259C19.4482 7.07493 19.4808 7.08903 19.5125 7.10482C19.6734 7.18493 19.8003 7.3203 20.0541 7.59103C22.291 9.97707 24.5277 12.3633 26.7647 14.7492C26.9164 14.911 27.0009 15.1245 27.0009 15.3464C27.0009 15.708 26.7077 16.0011 26.3461 16.0011H25V23.13C25 23.9471 25 24.3556 24.7755 24.6314C24.7325 24.6842 24.6842 24.7325 24.6314 24.7755C24.3556 25 23.9471 25 23.13 25H7.87C7.05294 25 6.64441 25 6.36865 24.7755C6.31581 24.7325 6.26752 24.6842 6.2245 24.6314C6 24.3556 6 23.9471 6 23.13V16H5.71662C5.32084 16 5 15.6792 5 15.2834C5 15.1013 5.0693 14.9261 5.19382 14.7933L11.9459 7.59103L13.0752 8.57965L7.5 14.5265ZM18.85 8.50025L15.0536 8.5011L20.6527 14.5011H24.4758L18.85 8.50025Z" fill="#767679"/>
<path d="M11.0009 17.775C11.0009 17.284 11.0009 17.0385 11.1114 16.8581C11.1732 16.7572 11.2581 16.6724 11.359 16.6105C11.5393 16.5 11.7848 16.5 12.2759 16.5H13.7259C14.2169 16.5 14.4624 16.5 14.6427 16.6105C14.7436 16.6724 14.8285 16.7572 14.8903 16.8581C15.0009 17.0385 15.0009 17.284 15.0009 17.775V19.225C15.0009 19.716 15.0009 19.9615 14.8903 20.1419C14.8285 20.2428 14.7436 20.3276 14.6427 20.3895C14.4624 20.5 14.2169 20.5 13.7259 20.5H12.2759C11.7848 20.5 11.5393 20.5 11.359 20.3895C11.2581 20.3276 11.1732 20.2428 11.1114 20.1419C11.0009 19.9615 11.0009 19.716 11.0009 19.225V17.775Z" fill="#767679"/>
</svg>
