<svg width="121" height="120" viewBox="0 0 121 120" fill="none" xmlns="http://www.w3.org/2000/svg">
<path d="M53.3951 20.0952C56.6738 21.1553 58.6607 24.196 60.2201 27.1411C63.1846 33.0523 64.8015 39.3646 66.3831 45.7703C67.2502 49.5766 67.2502 49.5766 68.5564 53.2386C68.8197 53.372 69.083 53.5054 69.3543 53.6428C69.3335 53.066 69.3335 53.066 69.3123 52.4776C69.3146 50.549 69.6697 48.7109 70.0276 46.8221C70.0986 46.4403 70.1696 46.0586 70.2427 45.6652C70.3959 44.8463 70.5504 44.0277 70.7062 43.2093C70.9571 41.8851 71.2008 40.5597 71.4443 39.2341C71.6117 38.3446 71.7795 37.4552 71.9477 36.5659C72.0609 35.9462 72.0609 35.9462 72.1763 35.314C72.9528 31.294 74.0763 27.1526 77.2342 24.3897C78.7901 23.6016 80.0373 23.3127 81.7228 23.7329C84.4401 25.1378 85.5092 27.8291 86.5105 30.6041C86.8897 31.8806 86.9609 33.0305 86.9625 34.3618C86.9633 34.7793 86.964 35.1968 86.9648 35.6269C86.963 36.0702 86.9612 36.5134 86.9594 36.9701C86.9586 37.4266 86.9578 37.8831 86.9571 38.3534C86.942 41.3081 86.8188 44.225 86.5994 47.171C86.3903 50.3976 86.4811 53.6448 86.5105 56.8763C86.611 56.5749 86.7114 56.2734 86.8148 55.9629C87.2763 54.5824 87.7412 53.2032 88.2062 51.8239C88.3641 51.3498 88.522 50.8757 88.6847 50.3872C91.3957 42.3732 91.3957 42.3732 94.8891 40.3046C96.1711 39.9669 97.2014 39.9487 98.48 40.3046C99.8168 41.3419 100.66 42.364 101.273 43.9423C102.414 53.3586 99.0408 63.3308 95.933 72.0877C94.9665 74.8171 94.1037 77.4376 93.6922 80.3191C93.6284 80.7255 93.5646 81.1319 93.4989 81.5506C93.1323 83.9932 92.8452 86.4292 92.6157 88.8882C91.8649 96.7864 89.7028 102.936 83.7177 108.208C83.4939 108.419 83.2702 108.629 83.0397 108.846C77.0552 113.874 67.1426 114.313 59.7788 113.867C57.6167 113.621 55.5127 113.149 53.3951 112.654C52.9965 112.576 52.5979 112.498 52.1872 112.417C45 110.879 37.213 106.888 32.9742 100.642C30.4756 96.6411 29.0221 93.195 29.4562 88.4029C29.9866 86.9865 30.4072 86.227 31.4511 85.1694C34.8494 84.6776 36.7533 85.9767 39.4308 87.9987C39.9183 88.4051 39.9183 88.4051 40.4157 88.8197C42.8701 90.7536 45.8273 92.4896 49.0203 92.2205C51.0081 91.7642 51.958 90.7504 53.1457 89.1355C54.553 85.9428 54.3178 81.2984 53.1457 78.0456C51.8968 75.4442 50.2299 73.2888 47.5709 72.0996C45.2489 71.4494 42.7076 71.3306 40.4391 72.2164C37.1021 74.2132 36.1822 76.9661 35.1573 80.5544C34.4268 82.9614 34.4268 82.9614 33.4445 83.9663C32.2745 84.5462 31.5396 84.5736 30.2542 84.361C28.1722 82.8545 27.2023 80.7744 26.6634 78.2982C26.0669 71.7286 27.0238 66.3249 30.862 60.8613C33.4832 57.8689 38.2983 55.5686 42.2236 55.2595C45.4488 55.1233 48.6095 55.1336 51.7992 55.6637C51.7229 55.4143 51.6467 55.1649 51.5681 54.9079C49.8193 49.1405 48.3792 43.4282 47.4104 37.4753C47.3204 36.9564 47.2304 36.4374 47.1376 35.9028C45.5458 25.9825 45.5458 25.9825 48.2083 22.1162C49.6877 20.2892 51.0657 19.7581 53.3951 20.0952Z" fill="#FFB979"/>
<path d="M24.2442 17C25.4302 17.4118 25.4302 17.4118 26.2456 18.5441C27.9241 20.6969 30.1554 21.7528 32.7596 22.1599C34.0085 22.2619 35.2477 22.3305 36.5 22.3529C36.2591 23.6159 35.8664 24.4635 35.1657 25.5184C32.709 29.5827 32.8029 33.3315 32.9419 38C31.5373 37.3754 30.6234 36.5023 29.532 35.4007C26.4659 32.4929 23.6625 31.1015 19.5 31C19.9397 30.0336 20.3236 29.3139 21.0073 28.5037C23.5771 24.9094 24.176 21.421 24.2442 17Z" fill="#FFCC00"/>
<path d="M36.9828 0C38.1142 0.520117 38.8204 0.980866 39.7759 1.82051C41.1886 3.02615 42.6856 3.52572 44.431 4.10256C45.1221 4.37254 45.8121 4.6453 46.5 4.92308C46.3602 5.20707 46.2205 5.49106 46.0765 5.78365C44.5034 9.20497 43.9461 12.2885 43.6034 16C43.3933 15.8413 43.1831 15.6827 42.9666 15.5192C40.23 13.4666 37.7592 11.7809 34.5 10.6667C34.6446 10.3779 34.7891 10.0892 34.938 9.79167C36.4659 6.50459 36.9236 3.60528 36.9828 0Z" fill="#FFCC00"/>
</svg>
