<svg width="107" height="108" viewBox="0 0 107 108" fill="none" xmlns="http://www.w3.org/2000/svg">
<path d="M51.1677 5.66675C45.2597 5.66675 40.374 10.5734 40.374 16.5069H34.5398C24.8951 16.5069 17 24.4306 17 34.1221V101.873C17 111.559 24.8898 119.488 34.5398 119.488H88.5501C90.7426 122.209 92.9456 124.469 94.9852 126.21C96.3186 127.348 97.5677 128.274 98.7904 128.984C100.013 129.688 101.062 130.333 103.017 130.333C105.083 130.333 105.984 129.656 107.16 128.952C108.335 128.248 109.563 127.338 110.875 126.205C113.505 123.94 116.472 120.79 119.329 116.863C125.042 109.008 130.333 98.0037 130.333 85.2747L130.328 85.2641C130.328 83.4751 129.158 81.8924 127.45 81.3737C121.158 79.4629 116.609 77.8485 113.405 76.0278C110.201 74.2123 108.282 72.3385 106.554 69.2104C105.837 67.9189 104.482 67.1196 103.007 67.1196C101.542 67.1249 100.187 67.9242 99.4703 69.2104C97.7417 72.3386 95.8233 74.2123 92.6189 76.0278C89.4145 77.8432 84.8557 79.4576 78.5682 81.3737C76.8606 81.8977 75.6959 83.4751 75.6959 85.2641C75.6959 95.2468 78.8897 104.165 83.0006 111.354H34.5342C29.2322 111.354 25.0845 107.199 25.0845 101.868V34.1177C25.0845 28.7929 29.2322 24.6273 34.5342 24.6273H40.7163C41.9338 29.2746 46.187 32.7574 51.1622 32.7574H72.7442C77.7247 32.7574 81.9779 29.2746 83.1901 24.6273H89.3881C94.6901 24.6273 98.8273 28.7929 98.8273 34.1177V57.153L98.8326 57.1582C98.8379 59.4024 100.646 61.218 102.88 61.218C103.955 61.2233 104.983 60.7946 105.742 60.0324C106.506 59.2702 106.933 58.2381 106.933 57.1582V34.123C106.933 24.4368 99.0381 16.5132 89.3934 16.5132H83.5486C83.5486 10.5797 78.6629 5.67309 72.7496 5.67309L51.1677 5.66675ZM51.1677 13.7968H72.7497C74.3151 13.7968 75.4534 14.9401 75.4534 16.5069V21.9164C75.4534 23.4884 74.315 24.6264 72.7497 24.6264H51.1677C49.6024 24.6264 48.4693 23.4884 48.4693 21.9164V16.5069C48.4693 14.9348 49.6024 13.7968 51.1677 13.7968ZM37.2385 43.6018H37.2332C36.1633 43.6018 35.1303 44.0305 34.3714 44.7927C33.6072 45.5549 33.1803 46.587 33.1803 47.6668C33.1803 48.7466 33.6072 49.784 34.3661 50.5462C35.125 51.3137 36.158 51.7372 37.2332 51.7372H77.7096C78.7847 51.7372 79.8125 51.3084 80.5714 50.5409C81.3303 49.7787 81.7572 48.7466 81.7519 47.6668C81.7519 45.4226 79.9443 43.6071 77.7096 43.6018L37.2385 43.6018ZM37.2385 59.8674H37.2332C36.1633 59.8674 35.1303 60.2961 34.3714 61.0583C33.6072 61.8152 33.1803 62.8526 33.1803 63.9271C33.1803 65.0069 33.6072 66.0443 34.3714 66.8065C35.1303 67.5687 36.1633 67.9922 37.2332 67.9922H77.7096C79.9441 67.9869 81.7519 66.1713 81.7519 63.9271C81.7519 61.6882 79.9443 59.8727 77.7096 59.8674L37.2385 59.8674ZM103.013 76.6885C104.984 78.9962 106.707 81.5582 109.427 83.1037C112.736 84.9827 117.137 86.3696 121.738 87.8515C121.053 97.2095 117.327 105.8 112.784 112.051C110.291 115.475 107.682 118.222 105.595 120.022C104.552 120.922 103.635 121.589 103.023 121.949C102.997 121.965 102.976 121.97 102.955 121.98C102.907 121.959 102.876 121.949 102.828 121.917C102.206 121.557 101.284 120.901 100.235 120.006C98.1428 118.217 95.555 115.481 93.0938 112.067C88.6035 105.826 84.9617 97.2305 84.2871 87.8511C88.8882 86.369 93.2889 84.977 96.5986 83.1032C99.3129 81.563 101.042 78.9964 103.013 76.6885ZM110.37 91.515C109.453 91.4726 108.552 91.7479 107.809 92.2877L101.663 96.7762L98.3166 94.1667C96.551 92.7906 94.016 93.1081 92.6405 94.876C91.2702 96.6492 91.5812 99.1951 93.3362 100.577L99.0809 105.076L99.0861 105.081C100.509 106.192 102.496 106.229 103.956 105.16L112.568 98.8564C114.375 97.5384 114.776 95.003 113.464 93.1875C112.742 92.1871 111.603 91.5679 110.37 91.515Z" fill="url(#paint0_linear_4918_10615)"/>
<defs>
<linearGradient id="paint0_linear_4918_10615" x1="23.3983" y1="123.295" x2="133.488" y2="23.2135" gradientUnits="userSpaceOnUse">
<stop stop-color="white" stop-opacity="0.23"/>
<stop offset="1" stop-color="white" stop-opacity="0.4"/>
</linearGradient>
</defs>
</svg>
