<svg width="107" height="110" viewBox="0 0 107 110" fill="none" xmlns="http://www.w3.org/2000/svg">
<g clip-path="url(#clip0_4918_4187)">
<path d="M136 67.9957C136.011 64.6144 134.666 61.3659 132.265 58.9808L125.801 52.5115L128.17 43.6737C129.99 36.8724 125.956 29.8829 119.155 28.0574L110.318 25.6888L107.944 16.8565C106.123 10.0552 99.1339 6.01546 92.3323 7.83607H92.3267L83.4893 10.1991L77.0203 3.73542C72.04 -1.24514 63.9662 -1.24514 58.9907 3.73542L52.5217 10.1991L43.6842 7.83054C36.8832 6.0098 29.894 10.0497 28.0728 16.851V16.8565L25.7043 25.6943L16.8558 28.0574C10.0548 29.8781 6.01522 36.8676 7.83575 43.6695V43.675L10.1987 52.5128L3.73527 58.9821C-1.24509 63.9626 -1.24509 72.0367 3.73527 77.0124L10.1987 83.4872L7.83022 92.325C6.00955 99.1263 10.0493 106.116 16.8503 107.937H16.8558L25.6933 110.306L28.0562 119.138C29.827 125.751 36.5007 129.785 43.1747 128.28L52.5101 125.795L58.9791 132.265C63.9594 137.245 72.0332 137.245 77.0087 132.265L83.4777 125.795L92.3151 128.164C99.1161 129.985 106.105 125.945 107.927 119.143V119.138L110.295 110.3L119.132 107.932C125.934 106.111 129.968 99.1158 128.147 92.3152L125.801 83.4885L132.27 77.0192C134.666 74.6285 136.011 71.3856 135.999 67.9988L136 67.9957ZM126.255 71.0006L118.048 79.2076C116.975 80.2812 116.554 81.8473 116.947 83.3138L119.952 94.5202C120.561 96.7892 119.216 99.1189 116.947 99.7277L105.736 102.733C104.269 103.126 103.124 104.271 102.731 105.738L99.7315 116.944C99.1228 119.213 96.7931 120.558 94.5242 119.949L83.3127 116.944C81.8462 116.551 80.2802 116.966 79.2067 118.045L71.0001 126.252C69.3399 127.913 66.6506 127.913 64.9904 126.252L56.7838 118.045C55.7102 116.972 54.1441 116.551 52.6778 116.944L41.4663 119.949C39.1974 120.558 36.8677 119.213 36.259 116.944L33.2541 105.738C32.8612 104.271 31.7158 103.126 30.2493 102.733L19.0433 99.7332C16.7744 99.1245 15.4298 96.7947 16.0385 94.5257L19.0433 83.3193C19.4362 81.8527 19.0212 80.2867 17.9421 79.2131L9.73551 71.0062C8.07534 69.3459 8.07534 66.6565 9.73551 64.9962L17.9421 56.7893C19.0157 55.7157 19.4363 54.1495 19.0433 52.6831L16.0385 41.4767C15.4298 39.2077 16.7745 36.8779 19.0433 36.2692L30.2493 33.2642C31.7158 32.8713 32.8613 31.7258 33.2541 30.2592L36.259 19.0528C36.8677 16.7838 39.1974 15.4391 41.4663 16.0478L52.6778 19.0528C54.1443 19.4457 55.7102 19.0307 56.7838 17.9516L64.9904 9.7446C66.6506 8.08436 69.3399 8.08436 71.0001 9.7446L79.2067 17.9516C80.2803 19.0252 81.8463 19.4458 83.3127 19.0528L94.5242 16.0478C96.7931 15.4446 99.1172 16.7894 99.726 19.0583L102.731 30.2648C103.124 31.7313 104.269 32.8769 105.736 33.2697L116.942 36.2747C119.21 36.8834 120.555 39.2132 119.946 41.4822L116.942 52.6886C116.549 54.1552 116.964 55.7212 118.043 56.7948L126.249 65.0017C127.91 66.662 127.91 69.3515 126.249 71.0117L126.255 71.0006ZM89.0354 46.9606C87.3753 45.3004 84.6859 45.3004 83.0258 46.9606L46.9679 83.0256C45.2801 84.6581 45.2302 87.3477 46.8627 89.0356C48.4953 90.7234 51.1847 90.7733 52.8724 89.1407C52.9056 89.1075 52.9444 89.0688 52.9776 89.0356L89.0411 52.9705C90.6958 51.3103 90.6956 48.6208 89.0354 46.9606ZM62.7227 49.9656C62.7227 42.9207 57.0174 37.2152 49.9729 37.2152C42.9283 37.2152 37.2231 42.9207 37.2231 49.9656C37.2231 57.0104 42.9283 62.7159 49.9729 62.7159C57.0062 62.7104 62.7116 57.0049 62.7227 49.9656ZM45.7229 49.9656C45.7229 47.6192 47.6266 45.7155 49.9729 45.7155C52.3191 45.7155 54.2228 47.6192 54.2228 49.9656C54.2228 52.3119 52.3191 54.2157 49.9729 54.2157C47.621 54.2157 45.7229 52.3119 45.7229 49.9656ZM86.0307 73.2803C78.9862 73.2803 73.2809 78.9857 73.2809 86.0306C73.2809 93.0754 78.9862 98.7809 86.0307 98.7809C93.0753 98.7809 98.7805 93.0754 98.7805 86.0306C98.775 78.9913 93.0698 73.2858 86.0307 73.2803ZM86.0307 90.2807C83.6845 90.2807 81.7808 88.3769 81.7808 86.0306C81.7808 83.6842 83.6845 81.7805 86.0307 81.7805C88.377 81.7805 90.2807 83.6842 90.2807 86.0306C90.2807 88.3769 88.3827 90.2807 86.0307 90.2807Z" fill="url(#paint0_linear_4918_4187)"/>
</g>
<defs>
<linearGradient id="paint0_linear_4918_4187" x1="7.67798" y1="128.322" x2="128.322" y2="7.67798" gradientUnits="userSpaceOnUse">
<stop stop-color="white" stop-opacity="0.23"/>
<stop offset="1" stop-color="white" stop-opacity="0.4"/>
</linearGradient>
<clipPath id="clip0_4918_4187">
<rect width="136" height="136" fill="white"/>
</clipPath>
</defs>
</svg>
