<svg width="107" height="110" viewBox="0 0 107 110" fill="none" xmlns="http://www.w3.org/2000/svg">
<g clip-path="url(#clip0_4918_14041)">
<path fill-rule="evenodd" clip-rule="evenodd" d="M124.667 52.556C124.667 112.657 68.0002 138.415 68.0002 138.415C68.0002 138.415 11.3335 112.657 11.3335 52.556V24.4516C11.3335 21.322 13.8724 18.7222 16.9785 18.3394C25.7519 17.258 43.8599 13.5521 64.9326 0.851786C66.817 -0.283927 69.1833 -0.28393 71.0677 0.851784C92.1404 13.5521 110.248 17.258 119.022 18.3394C122.128 18.7222 124.667 21.322 124.667 24.4516V52.556ZM68.0002 8.91851C88.4338 20.9595 106.215 25.1058 116.167 26.5333V52.556C116.167 79.6646 103.458 99.0762 90.3691 111.967C83.8156 118.421 77.2426 123.154 72.3167 126.263C70.6606 127.309 69.1997 128.165 68.0002 128.837C66.8006 128.165 65.3398 127.309 63.6836 126.263C58.7577 123.154 52.1848 118.421 45.6312 111.967C32.5421 99.0762 19.8335 79.6646 19.8335 52.556V26.5333C29.7854 25.1058 47.5665 20.9595 68.0002 8.91851Z" fill="url(#paint0_linear_4918_14041)"/>
<path d="M73.4287 40.6166C75.2951 40.512 77.0117 41.6401 77.6566 43.3946L85.1328 63.7481H93.5C95.8466 63.7481 97.749 65.6517 97.75 67.9981C97.75 70.3453 95.8472 72.2481 93.5 72.2481H82.1667C80.3846 72.2481 78.7912 71.1373 78.1768 69.4645L74.4801 59.404L66.4616 92.1478C66.0169 93.9635 64.4377 95.2749 62.5713 95.3796C60.7047 95.4841 58.9881 94.3564 58.3434 92.6016L50.8672 72.2481H42.5C40.1528 72.2481 38.25 70.3453 38.25 67.9981C38.251 65.6517 40.1534 63.7481 42.5 63.7481H53.8333L54.4919 63.8034C55.9985 64.0394 57.2857 65.0738 57.8232 66.5371L61.5143 76.5921L69.5384 43.8483L69.7542 43.1953C70.3794 41.7253 71.7948 40.7082 73.4287 40.6166Z" fill="url(#paint1_linear_4918_14041)"/>
</g>
<defs>
<linearGradient id="paint0_linear_4918_14041" x1="17.7318" y1="130.6" x2="138.104" y2="32.0398" gradientUnits="userSpaceOnUse">
<stop stop-color="white" stop-opacity="0.23"/>
<stop offset="1" stop-color="white" stop-opacity="0.4"/>
</linearGradient>
<linearGradient id="paint1_linear_4918_14041" x1="41.6091" y1="92.2938" x2="90.0349" y2="39.6921" gradientUnits="userSpaceOnUse">
<stop stop-color="white" stop-opacity="0.23"/>
<stop offset="1" stop-color="white" stop-opacity="0.4"/>
</linearGradient>
<clipPath id="clip0_4918_14041">
<rect width="136" height="136" fill="white"/>
</clipPath>
</defs>
</svg>
