<svg width="40" height="40" viewBox="0 0 40 40" fill="none" xmlns="http://www.w3.org/2000/svg">
<g clip-path="url(#clip0_3380_283733)">
<path d="M29.2939 14.6577C29.7355 14.127 29.6632 13.3389 29.1324 12.8974C28.6017 12.4559 27.8136 12.5282 27.3721 13.0589L18.5861 23.6198L14.2586 18.8516C13.7947 18.3404 13.0042 18.3021 12.4929 18.766C11.9817 19.23 11.9434 20.0205 12.4074 20.5317L17.7015 26.365C17.9447 26.633 18.2922 26.7825 18.654 26.7747C19.0159 26.7669 19.3566 26.6026 19.5881 26.3244L29.2939 14.6577Z" fill="url(#paint0_linear_3380_283733)"/>
<path fill-rule="evenodd" clip-rule="evenodd" d="M36.6663 15.4576C36.6663 33.1344 19.9997 40.7102 19.9997 40.7102C19.9997 40.7102 3.33301 33.1344 3.33301 15.4576V7.19164C3.33301 6.27117 4.07973 5.50653 4.99329 5.39393C7.57371 5.07589 12.8996 3.98592 19.0974 0.250525C19.6517 -0.083508 20.3477 -0.0835087 20.9019 0.250525C27.0998 3.98592 32.4256 5.07589 35.0061 5.39393C35.9196 5.50653 36.6663 6.27117 36.6663 7.19164V15.4576ZM19.9997 2.62309C26.0096 6.16455 31.2393 7.38405 34.1663 7.8039V15.4576C34.1663 23.4308 30.4285 29.1401 26.5788 32.9315C24.6513 34.8298 22.718 36.2216 21.2693 37.1363C20.7821 37.4438 20.3525 37.6957 19.9997 37.8932C19.6469 37.6957 19.2172 37.4438 18.7301 37.1363C17.2813 36.2216 15.3481 34.8298 13.4206 32.9315C9.57083 29.1401 5.83301 23.4308 5.83301 15.4576V7.8039C8.76005 7.38405 13.9898 6.16455 19.9997 2.62309Z" fill="url(#paint1_linear_3380_283733)"/>
</g>
<defs>
<linearGradient id="paint0_linear_3380_283733" x1="5.21487" y1="38.4118" x2="40.6185" y2="9.42345" gradientUnits="userSpaceOnUse">
<stop stop-color="white" stop-opacity="0.23"/>
<stop offset="1" stop-color="white" stop-opacity="0.4"/>
</linearGradient>
<linearGradient id="paint1_linear_3380_283733" x1="5.21487" y1="38.4118" x2="40.6185" y2="9.42345" gradientUnits="userSpaceOnUse">
<stop stop-color="white" stop-opacity="0.23"/>
<stop offset="1" stop-color="white" stop-opacity="0.4"/>
</linearGradient>
<clipPath id="clip0_3380_283733">
<rect width="40" height="40" fill="white"/>
</clipPath>
</defs>
</svg>
