<svg width="107" height="110" viewBox="0 0 107 110" fill="none" xmlns="http://www.w3.org/2000/svg">
<path d="M22.2365 57.7679C18.1026 57.8848 14.181 59.6376 11.3404 62.6432C8.49972 65.6492 6.97352 69.6653 7.09039 73.7995C7.20763 77.9251 8.95953 81.8291 11.9546 84.668L11.9491 84.6735L37.9361 109.521C42.8081 114.967 49.6206 117.583 56.8176 117.583H79.4843C81.9836 117.583 83.3498 118.395 84.0165 119.282C84.1939 119.519 84.3972 119.741 84.6197 119.935L90.2697 124.871L87.8127 127.328C86.1532 128.988 86.1538 131.678 87.8127 133.338C89.369 134.895 91.8322 134.994 93.5015 133.632L93.8225 133.338L127.822 99.3382C129.481 97.6784 129.482 94.9879 127.822 93.3284C126.163 91.6697 123.472 91.6697 121.813 93.3284L119.101 96.04L90.5409 68.5036C87.7989 65.1155 83.6422 63.75 79.4843 63.75H62.4843C58.3517 63.75 54.3887 65.3935 51.4664 68.3154C49.5611 70.2207 48.2152 72.5733 47.4986 75.1221L33.3596 61.9958C30.357 59.1722 26.3576 57.6517 22.2365 57.7679ZM22.4745 66.2679C24.3551 66.2147 26.1816 66.9071 27.549 68.1992L27.5767 68.2269L51.3778 90.3236C51.5266 90.4618 51.6862 90.5815 51.8482 90.6943C54.7309 93.3936 58.5224 94.9167 62.4843 94.9167H73.8176C76.1648 94.9167 78.0676 93.0139 78.0676 90.6667C78.0668 88.3202 76.1643 86.4167 73.8176 86.4167H62.4843C60.6057 86.4167 58.8045 85.6699 57.4761 84.3415C56.1482 83.0132 55.4009 81.2116 55.4009 79.3333C55.4013 77.4553 56.1481 75.6532 57.4761 74.3252C58.8044 72.9973 60.606 72.25 62.4843 72.25H79.4843C81.9836 72.25 83.3498 73.0616 84.0165 73.9489C84.1526 74.1304 84.3069 74.306 84.4703 74.4635L113.086 102.055L96.2961 118.845L90.4911 113.776C87.7487 110.433 83.6172 109.083 79.4843 109.083H56.8176C51.6345 109.083 47.2011 107.223 44.1506 103.738L43.8905 103.461L17.8205 78.5309L17.8039 78.5143C16.4365 77.222 15.638 75.4367 15.5849 73.556C15.532 71.6756 16.2296 69.8487 17.5217 68.4814C18.8136 67.1156 20.5952 66.3213 22.4745 66.2679ZM29.1926 17C29.1926 13.8097 30.2731 11.812 31.6275 10.5807C33.0471 9.29091 35.1518 8.5 37.6926 8.5C40.6857 8.5 43.1592 10.0879 44.6044 12.6891C45.3541 14.0378 46.7745 14.875 48.3176 14.875C49.8607 14.875 51.2811 14.0378 52.0308 12.6891C53.476 10.0879 55.9495 8.5 58.9426 8.5C61.4834 8.5 63.5881 9.29091 65.0077 10.5807C66.3621 11.812 67.4426 13.8097 67.4426 17C67.4426 18.3696 66.5754 20.8071 64.4433 24.1995C62.4232 27.4133 59.6626 30.877 56.8121 34.1162C53.9778 37.3368 51.1315 40.2498 48.9872 42.3617C48.7577 42.5876 48.5296 42.797 48.3176 43.0036C48.1056 42.797 47.8775 42.5876 47.648 42.3617C45.5037 40.2498 42.6574 37.3368 39.8231 34.1162C36.9726 30.877 34.212 27.4133 32.1919 24.1995C30.0598 20.8071 29.1926 18.3696 29.1926 17ZM20.6926 17C20.6926 20.9427 22.7481 25.1469 24.9979 28.7262C27.36 32.4837 30.445 36.3273 33.4371 39.7275C36.4455 43.1462 39.4446 46.2117 41.6825 48.4157C42.8031 49.5193 43.7405 50.4126 44.3996 51.0332C44.7281 51.3425 44.9887 51.5861 45.1688 51.7526C45.2587 51.8357 45.3306 51.9018 45.3791 51.9463C45.4023 51.9675 45.4213 51.984 45.4345 51.9961L45.4566 52.0182C46.8746 53.3073 48.9493 53.4714 50.5311 52.5052L51.1786 52.0182L51.2007 51.9961C51.2139 51.984 51.2329 51.9675 51.2561 51.9463C51.3046 51.9018 51.3764 51.8357 51.4664 51.7526C51.6465 51.5861 51.9071 51.3425 52.2356 51.0332C52.8947 50.4126 53.8321 49.5193 54.9527 48.4157C57.1906 46.2117 60.1897 43.1462 63.1981 39.7275C66.1902 36.3273 69.2752 32.4837 71.6373 28.7262C73.8871 25.1469 75.9426 20.9427 75.9426 17C75.9426 11.6903 74.0447 7.31296 70.7242 4.29427C67.4688 1.33511 63.2008 0 58.9426 0C54.7821 0 51.1335 1.51268 48.3176 3.96777C45.5017 1.51268 41.8531 0 37.6926 0C33.4344 0 29.1664 1.33511 25.911 4.29427C22.5905 7.31296 20.6926 11.6903 20.6926 17Z" fill="url(#paint0_linear_4918_5189)"/>
<defs>
<linearGradient id="paint0_linear_4918_5189" x1="122.18" y1="126.986" x2="3.36668" y2="19.2976" gradientUnits="userSpaceOnUse">
<stop stop-color="white" stop-opacity="0.23"/>
<stop offset="1" stop-color="white" stop-opacity="0.4"/>
</linearGradient>
</defs>
</svg>
