<svg width="107" height="108" viewBox="0 0 107 108" fill="none" xmlns="http://www.w3.org/2000/svg">
<g clip-path="url(#clip0_4918_4499)">
<path d="M62.5048 52.2463C60.8431 50.5846 58.1571 50.5846 56.4953 52.2463C54.8336 53.9081 54.8336 56.5941 56.4953 58.2558L64.9953 66.7558C65.8241 67.5846 66.9121 68.0011 68.0001 68.0011C69.0881 68.0011 70.1761 67.5846 71.0048 66.7558L92.2548 45.5058C93.9166 43.8441 93.9166 41.1581 92.2548 39.4963C90.5931 37.8346 87.9071 37.8346 86.2453 39.4963L68.0001 57.7416L62.5048 52.2463Z" fill="url(#paint0_linear_4918_4499)"/>
<path d="M93.5 55.25C91.1497 55.25 89.25 57.154 89.25 59.5C89.25 71.2173 79.7173 80.75 68 80.75C56.2827 80.75 46.75 71.2173 46.75 59.5C46.75 47.7827 56.2827 38.25 68 38.25C70.3503 38.25 72.25 36.346 72.25 34C72.25 31.654 70.3503 29.75 68 29.75C51.5992 29.75 38.25 43.095 38.25 59.5C38.25 75.905 51.5992 89.25 68 89.25C84.4007 89.25 97.75 75.905 97.75 59.5C97.75 57.154 95.8503 55.25 93.5 55.25Z" fill="url(#paint1_linear_4918_4499)"/>
<path d="M126.255 107.495L110.33 91.5663C110.691 89.2458 110.661 86.8148 110.619 84.5325C110.572 81.8252 110.525 79.0287 111.201 77.3925C111.822 75.905 113.768 74.0435 115.651 72.25C119.212 68.85 123.25 64.9953 123.25 59.5C123.25 54.0047 119.212 50.15 115.651 46.75C113.768 44.9523 111.822 43.095 111.201 41.6075C110.525 39.9712 110.576 37.1747 110.619 34.4675C110.708 29.6395 110.802 24.1698 107.066 20.434C103.917 17.2847 99.5391 16.8512 95.2848 16.8512L90.9286 16.9023C89.2626 16.9023 87.1928 16.8343 85.8966 16.2945C84.4048 15.6783 82.5476 13.7318 80.7498 11.849C77.3456 8.2875 73.4908 4.25 67.9998 4.25C62.5088 4.25 58.6541 8.2875 55.2498 11.849C53.4521 13.7318 51.5948 15.6783 50.1031 16.2945C48.8068 16.83 46.7371 16.9023 45.0711 16.9023L40.7148 16.8512C36.4563 16.8512 32.0831 17.2847 28.9338 20.434C25.1981 24.1698 25.2916 29.6395 25.3808 34.4675C25.4276 37.1747 25.4743 39.9712 24.7986 41.6075C24.1781 43.095 22.2316 44.9523 20.3488 46.75C16.7873 50.15 12.7498 54.0047 12.7498 59.5C12.7498 64.9953 16.7873 68.85 20.3488 72.25C22.2316 74.0478 24.1781 75.905 24.7986 77.3925C25.4743 79.0287 25.4233 81.8252 25.3808 84.5325C25.3383 86.819 25.3086 89.2458 25.6698 91.5663L9.74508 107.495C8.52958 108.711 8.16408 110.538 8.82283 112.128C9.47733 113.713 11.0328 114.75 12.7498 114.75H25.4998V127.5C25.4998 129.217 26.5326 130.768 28.1221 131.427C28.6491 131.644 29.2016 131.75 29.7498 131.75C30.8548 131.75 31.9428 131.317 32.7546 130.505L49.7546 113.505C51.4163 111.843 51.4163 109.157 49.7546 107.495C48.0928 105.833 45.4068 105.833 43.7451 107.495L33.9998 117.241V110.5C33.9998 108.154 32.1001 106.25 29.7498 106.25H23.0093L29.8816 99.3777C32.9288 101.771 36.8643 102.149 40.7148 102.149L45.0711 102.098C46.7371 102.098 48.8068 102.166 50.1031 102.706C51.5948 103.322 53.4521 105.272 55.2498 107.151C58.6541 110.713 62.5088 114.75 67.9998 114.75C73.4908 114.75 77.3456 110.713 80.7498 107.151C82.5476 105.268 84.4048 103.322 85.8966 102.706C87.1928 102.17 89.2626 102.098 90.9286 102.098L95.2848 102.149C99.1353 102.149 103.071 101.775 106.118 99.3777L112.99 106.25H106.25C103.9 106.25 102 108.154 102 110.5V117.241L92.2546 107.495C90.5928 105.833 87.9068 105.833 86.2451 107.495C84.5833 109.157 84.5833 111.843 86.2451 113.505L103.245 130.505C104.057 131.317 105.145 131.75 106.25 131.75C106.798 131.75 107.351 131.644 107.878 131.427C109.467 130.768 110.5 129.217 110.5 127.5V114.75H123.25C124.967 114.75 126.522 113.713 127.177 112.128C127.836 110.538 127.47 108.711 126.255 107.495ZM103.347 74.137C101.991 77.4053 102.055 81.1027 102.119 84.6812C102.178 87.8177 102.238 91.375 101.056 92.5565C100.087 93.5255 97.4608 93.6488 95.2848 93.6488L90.9286 93.5978C88.3276 93.5978 85.3058 93.7465 82.6453 94.8515C79.5003 96.1562 77.0141 98.7615 74.6043 101.282C72.3773 103.611 69.8571 106.25 67.9998 106.25C66.1426 106.25 63.6223 103.611 61.3953 101.282C58.9898 98.7615 56.5036 96.1562 53.3543 94.8515C50.6938 93.7465 47.6721 93.5978 45.0711 93.5978L40.7148 93.6488C38.5346 93.6488 35.9081 93.5255 34.9433 92.5565C33.7618 91.375 33.8213 87.8177 33.8808 84.6812C33.9446 81.1027 34.0083 77.4053 32.6526 74.137C31.3478 70.9963 28.7426 68.5058 26.2181 66.1003C23.8891 63.8775 21.2498 61.3573 21.2498 59.5C21.2498 57.6427 23.8891 55.1225 26.2181 52.8997C28.7426 50.4942 31.3478 48.008 32.6526 44.863C34.0083 41.5947 33.9446 37.8972 33.8808 34.3187C33.8213 31.178 33.7576 27.625 34.9433 26.4435C35.9081 25.4745 38.5346 25.3512 40.7148 25.3512L45.0711 25.4023C47.6721 25.4023 50.6938 25.2535 53.3543 24.1485C56.4993 22.8438 58.9856 20.2385 61.3953 17.7183C63.6223 15.3893 66.1426 12.75 67.9998 12.75C69.8571 12.75 72.3773 15.3893 74.6043 17.7183C77.0098 20.2385 79.4961 22.8438 82.6453 24.1485C85.3058 25.2535 88.3276 25.4023 90.9286 25.4023L95.2848 25.3512C97.4651 25.3512 100.092 25.4745 101.056 26.4435C102.238 27.625 102.178 31.1822 102.119 34.3187C102.055 37.8972 101.991 41.5947 103.347 44.863C104.652 48.0037 107.257 50.4942 109.782 52.8997C112.111 55.1225 114.75 57.6427 114.75 59.5C114.75 61.3573 112.111 63.8775 109.782 66.1003C107.257 68.5058 104.652 70.9963 103.347 74.137Z" fill="url(#paint2_linear_4918_4499)"/>
</g>
<defs>
<linearGradient id="paint0_linear_4918_4499" x1="57.4086" y1="66.3214" x2="82.9882" y2="33.4327" gradientUnits="userSpaceOnUse">
<stop stop-color="white" stop-opacity="0.23"/>
<stop offset="1" stop-color="white" stop-opacity="0.4"/>
</linearGradient>
<linearGradient id="paint1_linear_4918_4499" x1="41.6091" y1="85.8909" x2="94.3909" y2="33.1091" gradientUnits="userSpaceOnUse">
<stop stop-color="white" stop-opacity="0.23"/>
<stop offset="1" stop-color="white" stop-opacity="0.4"/>
</linearGradient>
<linearGradient id="paint2_linear_4918_4499" x1="15.2174" y1="124.552" x2="128.053" y2="19.2376" gradientUnits="userSpaceOnUse">
<stop stop-color="white" stop-opacity="0.23"/>
<stop offset="1" stop-color="white" stop-opacity="0.4"/>
</linearGradient>
<clipPath id="clip0_4918_4499">
<rect width="136" height="136" fill="white"/>
</clipPath>
</defs>
</svg>
