<svg width="107" height="128" viewBox="0 0 107 128" fill="none" xmlns="http://www.w3.org/2000/svg">
<path d="M67.9996 7.08228C75.2448 7.08228 82.2247 9.80752 87.5562 14.7135C92.8872 19.6192 96.1796 26.3476 96.7812 33.5673L97.4342 41.4475C98.02 41.5003 98.588 41.5609 99.1386 41.6301C103.67 42.1999 107.529 43.4151 110.815 46.2011C114.096 48.9832 115.946 52.6006 117.29 56.9976C118.272 60.2139 119.056 64.1154 119.896 68.746L120.765 73.6213L122.835 85.3531L124.013 92.1044C125.105 98.5027 125.9 103.868 126.055 108.335C126.266 114.402 125.343 119.603 121.794 123.902C118.23 128.209 113.303 130.06 107.34 130.919C101.5 131.76 93.9159 131.749 84.4241 131.749H51.5751C42.0821 131.749 34.4985 131.761 28.6594 130.919C22.6952 130.059 17.7681 128.212 14.205 123.902C10.6505 119.602 9.73099 114.397 9.94392 108.33C10.153 102.376 11.4959 94.8288 13.1646 85.3587L15.2343 73.6213L16.1031 68.746C16.9437 64.1154 17.7272 60.2139 18.7095 56.9976C20.0527 52.6006 21.9032 48.9832 25.1842 46.2011C28.4702 43.415 32.3289 42.1999 36.8606 41.6301C37.4094 41.5611 37.9756 41.5002 38.5595 41.4475L39.218 33.5673C39.8195 26.3477 43.1121 19.6192 48.4429 14.7135C53.7744 9.80756 60.7544 7.08232 67.9996 7.08228ZM53.6448 49.5823C46.58 49.5823 41.6752 49.5912 37.9176 50.0637C34.2825 50.5209 32.2378 51.36 30.6793 52.6812C29.1153 54.0074 27.9281 55.9163 26.8388 59.4823C25.7166 63.157 24.8495 68.0581 23.607 75.0989L21.5373 86.8307C19.8233 96.5579 18.6217 103.41 18.4384 108.629C18.2593 113.733 19.099 116.478 20.7571 118.484C22.4073 120.481 24.9047 121.791 29.8713 122.507C34.9618 123.242 41.8174 123.249 51.5751 123.249H84.4241C94.1796 123.249 101.036 123.241 106.128 122.507C110.477 121.881 112.932 120.8 114.584 119.204L115.242 118.49C116.899 116.482 117.739 113.734 117.561 108.629C117.379 103.409 116.178 96.5561 114.462 86.8307L111.523 70.2014C110.702 65.682 110.002 62.238 109.16 59.4823C108.071 55.9163 106.884 54.0074 105.32 52.6812C103.761 51.3601 101.717 50.5209 98.0816 50.0637C94.3239 49.5912 89.4194 49.5823 82.3544 49.5823H53.6448ZM85.387 58.0989C87.7243 58.3139 89.448 60.3878 89.233 62.7252L89.1168 63.6991C87.667 73.7108 78.384 80.7489 67.9996 80.7489C57.6152 80.7489 48.3322 73.7108 46.8824 63.6991L46.7662 62.7252L46.7496 62.288C46.77 60.134 48.421 58.3005 50.6122 58.0989C52.8028 57.8984 54.7593 59.3996 55.1721 61.5133L55.233 61.9449L55.3824 62.9631C56.3988 68.0136 61.4096 72.2489 67.9996 72.2489C75.0283 72.2489 80.2608 67.4311 80.7662 61.9449L80.8271 61.5133C81.2398 59.3997 83.1965 57.8986 85.387 58.0989ZM67.9996 15.5823C62.8866 15.5823 57.9606 17.5046 54.1982 20.9667C50.4357 24.4289 48.1092 29.1803 47.6848 34.2756L47.1093 41.1099C49.1408 41.0893 51.3167 41.0823 53.6448 41.0823H82.3544C84.6803 41.0823 86.8544 41.0894 88.8844 41.1099L88.3144 34.2756C87.89 29.1802 85.5635 24.4289 81.801 20.9667C78.0385 17.5046 73.1126 15.5823 67.9996 15.5823Z" fill="url(#paint0_linear_4918_1456)"/>
<defs>
<linearGradient id="paint0_linear_4918_1456" x1="16.4734" y1="124.711" x2="126.789" y2="21.9153" gradientUnits="userSpaceOnUse">
<stop stop-color="white" stop-opacity="0.23"/>
<stop offset="1" stop-color="white" stop-opacity="0.4"/>
</linearGradient>
</defs>
</svg>
