<svg width="121" height="120" viewBox="0 0 121 120" fill="none" xmlns="http://www.w3.org/2000/svg">
<path d="M76.5961 50.2052C77.2617 49.3237 77.0867 48.0695 76.2052 47.4039C75.3237 46.7383 74.0695 46.9133 73.4039 47.7948L56.3858 70.3323L47.5052 60.183C46.7778 59.3517 45.5143 59.2675 44.683 59.9948C43.8517 60.7222 43.7675 61.9857 44.4948 62.817L55.8045 75.7424C56.2222 76.2197 56.9729 76.1926 57.3551 75.6865L76.5961 50.2052Z" fill="#44BF78"/>
<path fill-rule="evenodd" clip-rule="evenodd" d="M98 60C98 80.9868 80.9868 98 60 98C39.0132 98 22 80.9868 22 60C22 39.0132 39.0132 22 60 22C80.9868 22 98 39.0132 98 60ZM94 60C94 78.7777 78.7777 94 60 94C41.2223 94 26 78.7777 26 60C26 41.2223 41.2223 26 60 26C78.7777 26 94 41.2223 94 60Z" fill="#44BF78"/>
</svg>
