<svg width="24" height="24" viewBox="0 0 24 24" fill="none" xmlns="http://www.w3.org/2000/svg">
<path d="M10.3467 20.5582C11.5596 20.5582 12.7373 20.312 13.8184 19.855C13.4053 19.4068 13.0889 18.8794 12.8604 18.3169C12.0781 18.607 11.2344 18.7739 10.3467 18.7739C6.3037 18.7739 3.06055 15.522 3.06055 11.479C3.06055 7.43604 6.29493 4.19287 10.3379 4.19287C13.9941 4.19287 17.0087 6.86475 17.5361 10.3716C18.0811 10.2837 18.8018 10.3101 19.3555 10.4507C18.8369 5.95068 14.9609 2.3999 10.3379 2.3999C5.36328 2.3999 1.26758 6.51318 1.26758 11.479C1.26758 16.4536 5.37207 20.5582 10.3467 20.5582ZM5.89941 12.5688H10.3379C10.7334 12.5688 11.0322 12.2612 11.0322 11.8745V6.10888C11.0322 5.72217 10.7334 5.41455 10.3379 5.41455C9.95118 5.41455 9.64356 5.72217 9.64356 6.10888V11.1802H5.89941C5.5039 11.1802 5.20507 11.479 5.20507 11.8745C5.20507 12.2612 5.5039 12.5688 5.89941 12.5688ZM18.1426 20.6021C20.6035 20.6021 22.669 18.5455 22.669 16.0757C22.669 13.5972 20.621 11.5581 18.1426 11.5581C15.6641 11.5581 13.6162 13.5972 13.6162 16.0757C13.6162 18.563 15.6641 20.6021 18.1426 20.6021ZM18.1426 16.8404C17.7998 16.8404 17.5537 16.603 17.5361 16.2603L17.4658 13.7817C17.4571 13.3862 17.7295 13.1138 18.1426 13.1138C18.5557 13.1138 18.8369 13.3862 18.8281 13.7817L18.749 16.2603C18.7402 16.603 18.4853 16.8404 18.1426 16.8404ZM18.1426 19.0288C17.6944 19.0288 17.3339 18.6773 17.3339 18.229C17.3339 17.7896 17.6944 17.438 18.1426 17.438C18.5996 17.438 18.9599 17.7896 18.9512 18.229C18.9512 18.6773 18.5996 19.0288 18.1426 19.0288Z" fill="#44BF78"/>
</svg>
