<svg width="40" height="40" viewBox="0 0 40 40" fill="none" xmlns="http://www.w3.org/2000/svg">
<path d="M8.94826 25.5707L12.3015 28.9288C12.5456 29.173 12.6545 29.2813 12.7958 29.4202C12.9712 29.5956 13.0797 29.702 13.1907 29.8063C13.2263 29.8394 13.221 29.8339 13.3283 29.947C13.3604 29.9809 13.3858 30.0071 13.404 30.025C13.7096 30.3314 14.0615 30.5876 14.4422 30.7819C14.8343 30.9794 15.2534 31.1177 15.6785 31.1911C16.1569 31.2699 16.6405 31.3125 17.1345 31.3188C17.3792 31.3242 17.6154 31.3273 17.8443 31.3282H29.2694C29.4776 31.3282 29.6882 31.3252 29.9939 31.3186C30.4846 31.3126 30.9741 31.2696 31.4504 31.1914C31.8866 31.1161 32.3092 30.9763 32.7039 30.7769C33.094 30.5796 33.4502 30.3214 33.7582 30.0128C34.0678 29.702 34.3272 29.3449 34.5238 28.9606C34.7232 28.5636 34.8627 28.1393 34.9366 27.709C35.0157 27.225 35.0584 26.7357 35.0646 26.2281C35.0689 26.0819 35.0709 25.9624 35.0741 25.6909C35.0751 25.6011 35.0752 25.5982 35.0763 25.5113V15.6231L35.0764 14.7642C35.0755 14.6904 35.0755 14.6904 35.0747 14.6171C35.0729 14.4468 35.072 14.3734 35.0704 14.2812C35.069 14.1972 35.0673 14.1212 35.0647 14.0315C35.059 13.5462 35.0168 13.0621 34.9399 12.5911C34.8654 12.1582 34.7274 11.7386 34.5338 11.3528C34.3361 10.9665 34.0795 10.6133 33.7717 10.3046C33.4677 9.99852 33.1166 9.74316 32.732 9.54846C32.3414 9.35087 31.9235 9.21244 31.5022 9.13938C31.0219 9.06131 30.5365 9.01891 30.0394 9.01234C29.7796 9.00611 29.5513 9.00291 29.3247 9.00286C29.0874 9.00048 28.8964 9 28.4644 9H18.7114C18.2825 9 18.0902 9.00048 17.8423 9.00291C17.6258 9.00291 17.3981 9.00609 17.124 9.01254C16.6385 9.01896 16.1541 9.06135 15.6847 9.13768C15.252 9.21271 14.8328 9.35132 14.4443 9.54718C14.0596 9.74317 13.7085 9.99902 13.3975 10.3116C13.396 10.3131 13.3744 10.3359 13.3299 10.3831C13.2444 10.4738 13.2259 10.4932 13.1949 10.5221C13.0552 10.6546 12.923 10.7833 12.7861 10.9206C12.6437 11.0596 12.4983 11.2044 12.3005 11.4033L8.95019 14.758C8.90259 14.8022 8.88588 14.8177 8.87152 14.8297C8.80618 14.8923 8.73965 14.9573 8.672 15.0246C8.62829 15.0683 8.58884 15.1073 8.52071 15.1743C8.44189 15.2518 8.41401 15.2793 8.3811 15.3121L5.3821 18.3142C5.32146 18.3774 5.25829 18.4417 5.17931 18.521C5.12963 18.5708 5.12963 18.5708 5.06667 18.6335C5.01698 18.6839 4.95127 18.7516 4.83758 18.8697C4.6254 19.0795 4.42499 19.3008 4.23729 19.5328L4.17847 19.5991C4.12867 19.6502 4.08708 19.7087 4.05509 19.7724C3.98182 20.0292 3.98164 20.3014 4.05453 20.5583C4.08648 20.6208 4.12784 20.6782 4.17724 20.7284L4.24121 20.8001C4.42789 21.0316 4.62745 21.2524 4.86317 21.4862C4.92488 21.5518 4.99106 21.6193 5.08325 21.7115C5.15658 21.7848 5.19005 21.8184 5.23149 21.8602C5.28727 21.9165 5.33645 21.9666 5.37176 22.0034L8.38217 25.0192C8.52431 25.1613 8.58674 25.2233 8.66699 25.3012C8.77816 25.411 8.82267 25.4545 8.87441 25.504C8.88137 25.5098 8.94826 25.5707 8.94826 25.5707Z" stroke="#767679" stroke-width="1.5"/>
<path d="M27.1275 14.9971L18.0488 24.0869L19.2805 25.3186L28.3592 16.2288L27.1275 14.9971Z" fill="#767679"/>
<path d="M28.3553 24.084L19.2673 15.002L18.0371 16.2351L27.126 25.3138L28.3553 24.084Z" fill="#767679"/>
</svg>
