<svg width="40" height="40" viewBox="0 0 40 40" fill="none" xmlns="http://www.w3.org/2000/svg">
<g clip-path="url(#clip0_155_7693)">
<path d="M28.4316 19.5096C29.099 19.5096 29.633 18.975 29.6774 18.3069V15.0998C29.6774 14.3871 29.1435 13.8525 28.4316 13.8525C27.7197 13.8525 27.1858 14.4316 27.1858 15.0998V18.2623C27.1858 18.975 27.7642 19.5096 28.4316 19.5096Z" fill="#767679"/>
<path d="M26.1178 28.1513C24.516 29.7548 22.3803 30.6457 20.2001 30.6457H19.8442C17.6195 30.6457 15.5282 29.7548 13.9265 28.1513C13.5705 27.7504 12.9476 27.7504 12.5472 28.1513C12.1467 28.5076 12.1467 29.1312 12.5472 29.5321C14.5494 31.5366 17.13 32.6056 19.8442 32.6056H20.2001C22.9142 32.6056 25.5394 31.5366 27.4971 29.5321C27.8976 29.1758 27.8976 28.5521 27.4971 28.1513C27.1412 27.7504 26.5182 27.7504 26.1178 28.1513Z" fill="#767679"/>
<path d="M17.5751 25.4332H17.7975C19.7997 25.4332 21.4015 23.8296 21.4015 21.8697V15.0991C21.4015 14.5646 20.9566 14.1191 20.4227 14.1191C19.8887 14.1191 19.4438 14.5646 19.4438 15.0991V21.8252C19.4438 22.7606 18.6874 23.4733 17.7975 23.4733H17.5751C17.0411 23.4733 16.5962 23.9187 16.5962 24.4532C16.5962 24.9877 17.0411 25.4332 17.5751 25.4332Z" fill="#767679"/>
<path d="M10.99 13.8525C10.2781 13.8525 9.74414 14.4316 9.74414 15.0998V18.2623C9.74414 18.975 10.3226 19.5096 10.99 19.5096C11.7019 19.5096 12.2358 18.975 12.2358 18.3069V15.0998C12.2358 14.3871 11.6574 13.8525 10.99 13.8525Z" fill="#767679"/>
<path d="M39.0212 28.375C38.4873 28.375 38.0424 28.8204 38.0424 29.355V33.4529C38.0424 35.9919 35.9956 38.0409 33.4595 38.0409H29.0101C28.4762 38.0409 28.0312 38.4864 28.0312 39.0209C28.0312 39.5554 28.4762 40.0008 29.0101 40.0008H33.4595C37.0635 40.0008 40.0001 37.061 40.0001 33.4529V29.355C40.0001 28.8204 39.5552 28.375 39.0212 28.375Z" fill="#767679"/>
<path d="M33.4595 0H29.0101C28.4762 0 28.0312 0.445434 28.0312 0.979955C28.0312 1.51448 28.4762 1.95991 29.0101 1.95991H33.4595C35.9956 1.95991 38.0424 4.00891 38.0424 6.54788V11.314C38.0424 11.8486 38.4873 12.294 39.0212 12.294C39.5552 12.294 40.0001 11.8486 40.0001 11.314V6.54788C40.0001 2.93987 37.0635 0 33.4595 0Z" fill="#767679"/>
<path d="M1.0233 12.294C1.55723 12.294 2.00216 11.8486 2.00216 11.314V6.54788C2.00216 4.00891 4.04888 1.95991 6.58503 1.95991H11.0344C11.5683 1.95991 12.0133 1.51448 12.0133 0.979955C12.0133 0.445434 11.5683 0 11.0344 0H6.58503C2.98103 0 0.0444336 2.93987 0.0444336 6.54788V11.314C0.0444336 11.8486 0.489372 12.294 1.0233 12.294Z" fill="#767679"/>
<path d="M10.99 38.0409H6.5406C4.00445 38.0409 1.95773 35.9919 1.95773 33.4529V29.355C1.95773 28.8204 1.51279 28.375 0.978865 28.375C0.444939 28.375 0 28.8204 0 29.355V33.4529C0 37.061 2.9366 40.0008 6.5406 40.0008H10.99C11.5684 40.0008 11.9689 39.5554 11.9689 39.0209C11.9689 38.4864 11.5239 38.0409 10.99 38.0409Z" fill="#767679"/>
</g>
<defs>
<clipPath id="clip0_155_7693">
<rect width="40" height="40" fill="white"/>
</clipPath>
</defs>
</svg>
