<svg width="40" height="40" viewBox="0 0 40 40" fill="none" xmlns="http://www.w3.org/2000/svg">
<path d="M8.00009 20.9951C7.44709 20.9951 7.0011 21.4403 7.0011 21.9941C7.0011 22.5476 7.44649 22.9928 8.00009 22.9928C8.55358 22.9928 8.99908 22.5476 8.99908 21.9941C8.99908 21.4411 8.55388 20.9951 8.00009 20.9951Z" fill="#767679"/>
<path d="M32.7356 11.3759C32.3928 9.70741 31.7337 8.14332 30.7766 6.72723C30.4673 6.26973 29.8458 6.14943 29.3881 6.45863C28.9306 6.76783 28.8103 7.38952 29.1195 7.84712C29.9293 9.04521 30.4867 10.3678 30.7765 11.7784C30.8738 12.2515 31.2902 12.5774 31.755 12.5774C31.8217 12.5774 31.8895 12.5707 31.9573 12.5567C32.4982 12.4456 32.8468 11.9169 32.7356 11.3759Z" fill="#767679"/>
<path d="M27.2653 3.21755C22.1258 -0.257229 15.2062 0.410767 10.8124 4.80574C7.12893 8.48822 7.06573 11.9779 7.01493 14.7819C6.98273 16.591 7.01493 13.8519 7.00033 17.994C7.00033 18.5463 7.44812 18.994 8.00032 18.994C8.55252 18.994 9.00032 18.5463 9.00032 17.994V15.5073C9.08042 12.4467 8.89362 9.55211 12.2266 6.22003C15.9443 2.50126 21.7979 1.93536 26.1452 4.87444C26.6025 5.18374 27.2243 5.06374 27.5337 4.60604C27.8431 4.14855 27.7229 3.52685 27.2653 3.21755Z" fill="#767679"/>
<path d="M27.5335 35.382C27.2242 34.9244 26.6025 34.8044 26.1449 35.1137C24.2977 36.3626 22.21 36.997 20.1002 37.0059C14.4383 37.0298 9.00023 32.5524 9.00023 25.9941C9.00023 25.4418 8.55244 24.9941 8.00024 24.9941C7.44804 24.9941 7.00024 25.4418 7.00024 25.9941C7.00024 33.5811 13.2127 38.995 20.0691 38.995C22.6414 38.995 25.1329 38.2121 27.2652 36.7705C27.7228 36.4612 27.8429 35.8395 27.5335 35.382Z" fill="#767679"/>
<path d="M32.0002 14.4922C31.448 14.4922 31.0002 14.9399 31.0002 15.4922V25.9921C31.0002 28.1917 30.3499 30.3167 29.1198 32.1372C28.8106 32.5948 28.9309 33.2164 29.3885 33.5256C29.844 33.8335 30.4663 33.7165 30.7768 33.2569C32.2314 31.1045 33.0002 28.5923 33.0002 25.9921V15.4922C33.0002 14.9399 32.5524 14.4922 32.0002 14.4922Z" fill="#767679"/>
<path d="M20.0002 32.9939C16.1407 32.9939 13.0002 29.8579 13.0002 25.994V13.994C13.0002 13.0501 13.1855 12.1349 13.5508 11.2736C13.7664 10.7652 13.5291 10.1781 13.0207 9.96246C12.5121 9.74676 11.9252 9.98426 11.7096 10.4926C11.2389 11.6023 11.0002 12.7802 11.0002 13.994V25.994C11.0002 30.9586 15.0308 34.9939 20.0002 34.9939C20.5524 34.9939 21.0002 34.5462 21.0002 33.9939C21.0002 33.4416 20.5524 32.9939 20.0002 32.9939Z" fill="#767679"/>
<path d="M28.0382 26.6221C27.4983 26.5112 26.9688 26.8596 26.8577 27.4007C26.5829 28.7402 25.9223 29.9635 24.9472 30.9385C24.5567 31.329 24.5567 31.9622 24.9472 32.3528C25.3378 32.7433 25.9708 32.7433 26.3615 32.3528C27.6141 31.1001 28.4632 29.5267 28.8169 27.8027C28.9278 27.2617 28.5792 26.7331 28.0382 26.6221Z" fill="#767679"/>
<path d="M20.0001 4.99316C18.7878 4.99316 17.6098 5.23176 16.499 5.70236C15.9904 5.91776 15.7529 6.50466 15.9682 7.01325C16.1837 7.52175 16.7706 7.75955 17.279 7.54395C18.1418 7.17845 19.0572 6.99315 20.0001 6.99315C23.8599 6.99315 27.0001 10.1333 27.0001 13.9931V22.9931V23.0031C27.0001 23.5554 27.4479 24.0031 28.0001 24.0031C28.5523 24.0031 29.0001 23.5554 29.0001 23.0031V22.9931V13.9931C29.0001 9.03054 24.9627 4.99316 20.0001 4.99316Z" fill="#767679"/>
<path d="M20 8.99414C17.243 8.99414 15 11.2371 15 13.9941V22.9941C15 23.5464 15.4478 23.9941 16 23.9941C16.5522 23.9941 17 23.5464 17 22.9941V13.9941C17 12.3399 18.3458 10.9941 20 10.9941C21.6542 10.9941 23 12.3399 23 13.9941C23 14.5464 23.4478 14.9941 23.9999 14.9941C24.5521 14.9941 24.9999 14.5464 24.9999 13.9941C24.9999 11.2371 22.757 8.99414 20 8.99414Z" fill="#767679"/>
<path d="M24.9974 24.9796C24.99 24.5494 24.9868 25.1841 25.0001 19.9941C25.0001 19.4418 24.5523 18.9941 24.0001 18.9941C23.4479 18.9941 23.0101 19.4418 23.0101 19.9941C22.9973 24.9913 22.9924 24.1239 23.0077 25.0139C23.0263 26.0985 23.0239 26.5475 22.7642 27.1603C22.2927 28.2742 21.2077 28.994 20.0002 28.994C18.7932 28.994 17.7081 28.2741 17.236 27.1599C17.0205 26.6514 16.4339 26.4138 15.9251 26.6293C15.4166 26.8448 15.179 27.4317 15.3944 27.9402C16.1806 29.7953 17.9884 30.994 20.0002 30.994C22.0127 30.994 23.8205 29.7952 24.6058 27.9402C25.0309 26.9372 25.0175 26.1584 24.9974 24.9796Z" fill="#767679"/>
<path d="M20.0006 12.9932C19.4484 12.9932 19.0006 13.4409 19.0006 13.9932V25.9931C19.0006 26.5454 19.4484 26.9931 20.0006 26.9931C20.5528 26.9931 21.0006 26.5454 21.0006 25.9931V13.9932C21.0006 13.4409 20.5528 12.9932 20.0006 12.9932Z" fill="#767679"/>
</svg>
